<svg width="100" height="100" viewBox="0 0 100 100" fill="none" xmlns="http://www.w3.org/2000/svg">
<path fill-rule="evenodd" clip-rule="evenodd" d="M1.4361 38.0537C0.49765 41.8818 0 45.8828 0 50C0 55.5078 0.89061 60.8081 2.53566 65.7637C25.7884 59.543 63.1255 51.7505 99.9994 50.2485C99.9998 50.166 100 50.083 100 50C100 45.8813 99.502 41.8784 98.5629 38.0493C74.2441 42.4985 36.4158 45.7173 1.4361 38.0537ZM13.546 15.7783C34.1873 20.4717 63.0566 24.667 92.1079 23.0273C83.2175 9.17725 67.6804 0 50 0C35.6251 0 22.667 6.06641 13.546 15.7783ZM98.3101 62.9375C70.9072 63.271 31.4108 65.7651 5.91731 73.6157C7.08812 75.7969 8.41603 77.8804 9.88594 79.8525C25.8608 73.5356 54.9017 68.0903 92.1891 76.8462C94.895 72.6025 96.9782 67.9233 98.3101 62.9375ZM86.8016 83.8477C69.038 82.7466 40.9627 83.5078 23.0581 92.1279C30.8336 97.1108 40.0794 100 50 100C64.5585 100 77.6638 93.7778 86.8016 83.8477Z" fill="white"/>
</svg>
