<svg width="100" height="100" viewBox="0 0 100 100" fill="none" xmlns="http://www.w3.org/2000/svg">
<path fill-rule="evenodd" clip-rule="evenodd" d="M14.301 15C18.951 10.2449 24.5052 6.46822 30.6367 3.89215C36.7681 1.31609 43.353 -0.00725072 50.0035 2.98789e-05C72.3969 2.98789e-05 91.3356 14.715 97.7102 35H65.0025C63.6765 35 62.4048 35.5268 61.4672 36.4645C60.5296 37.4022 60.0028 38.6739 60.0028 40C60.0028 41.3261 60.5296 42.5979 61.4672 43.5355C62.4048 44.4732 63.6765 45 65.0025 45H99.75C99.915 46.65 100 48.315 100 50C100 77.615 77.6166 100 50.0035 100C43.3529 100.008 36.768 98.6843 30.6365 96.1082C24.505 93.5321 18.9509 89.7553 14.301 85H45.0039C46.3299 85 47.6015 84.4732 48.5392 83.5355C49.4768 82.5978 50.0035 81.3261 50.0035 80C50.0035 78.6739 49.4768 77.4021 48.5392 76.4644C47.6015 75.5268 46.3299 75 45.0039 75H6.69657C4.86737 71.8383 3.39191 68.4847 2.29688 65H55.0032C56.3292 65 57.6008 64.4732 58.5385 63.5355C59.4761 62.5978 60.0028 61.3261 60.0028 60C60.0028 58.6739 59.4761 57.4021 58.5385 56.4645C57.6008 55.5268 56.3292 55 55.0032 55H0.257027C-0.806709 44.5708 1.44863 34.072 6.70157 25H50.0035C51.3295 25 52.6012 24.4732 53.5388 23.5355C54.4764 22.5979 55.0032 21.3261 55.0032 20C55.0032 18.6739 54.4764 17.4022 53.5388 16.4645C52.6012 15.5268 51.3295 15 50.0035 15H14.301ZM40.0042 35C38.6782 35 37.4066 35.5268 36.4689 36.4645C35.5313 37.4022 35.0046 38.6739 35.0046 40C35.0046 41.3261 35.5313 42.5979 36.4689 43.5355C37.4066 44.4732 38.6782 45 40.0042 45H50.0035C51.3295 45 52.6012 44.4732 53.5388 43.5355C54.4764 42.5979 55.0032 41.3261 55.0032 40C55.0032 38.6739 54.4764 37.4022 53.5388 36.4645C52.6012 35.5268 51.3295 35 50.0035 35H40.0042ZM28.545 43.54C27.6075 44.4774 26.336 45.0039 25.0103 45.0039C23.6846 45.0039 22.4131 44.4774 21.4755 43.54C20.5374 42.6025 20.0051 41.3306 20.0046 40.0043C20.0044 39.3475 20.1335 38.6972 20.3846 38.0903C20.6357 37.4835 21.0038 36.9321 21.468 36.4675C21.9322 36.003 22.4834 35.6344 23.09 35.3829C23.6966 35.1313 24.3468 35.0017 25.0035 35.0015C26.3298 35.001 27.6019 35.5275 28.54 36.465C29.0049 36.9294 29.3737 37.4808 29.6253 38.0878C29.8769 38.6948 30.0064 39.3454 30.0064 40.0025C30.0064 40.6596 29.8769 41.3102 29.6253 41.9172C29.3737 42.5242 29.0049 43.0756 28.54 43.54H28.545ZM66.4724 63.54C66.9336 64.0175 67.4852 64.3984 68.0952 64.6605C68.7052 64.9225 69.3613 65.0605 70.0251 65.0662C70.689 65.072 71.3473 64.9455 71.9617 64.6941C72.5762 64.4427 73.1344 64.0714 73.6038 63.602C74.0733 63.1325 74.4445 62.5742 74.6959 61.9598C74.9473 61.3453 75.0738 60.6869 75.068 60.023C75.0622 59.3591 74.9243 58.703 74.6623 58.093C74.4003 57.4829 74.0194 56.9312 73.5419 56.47C72.6044 55.5318 71.3326 54.9994 70.0064 54.999C68.6801 54.9985 67.408 55.525 66.4699 56.4625C65.5317 57.4 65.0044 58.6719 65.004 59.9982C65.0035 61.3246 65.5299 62.5968 66.4674 63.535L66.4724 63.54Z" fill="white"/>
</svg>
