<svg width="100" height="85" viewBox="0 0 100 85" fill="none" xmlns="http://www.w3.org/2000/svg">
<path fill-rule="evenodd" clip-rule="evenodd" d="M92.0239 44.2148C91.677 51.2496 89.5718 58.0851 85.9009 64.0962C82.23 70.1072 77.1106 75.1019 71.0108 78.6235C64.9111 82.1451 58.0257 84.081 50.9845 84.2544C43.9433 84.4277 36.9711 82.8328 30.7054 79.6157C35.1871 78.0944 39.5826 76.3302 43.8725 74.331C50.3368 71.3197 56.6594 68.0132 62.8204 64.4218C69.012 60.8806 75.0379 57.057 80.8789 52.9632C84.7495 50.2509 88.4699 47.3305 92.0239 44.2148ZM49.9435 9.5572e-07C60.363 9.5572e-07 69.8977 3.78208 77.2513 10.045L78.7351 9.70797L79.5168 9.54883L81.1363 9.24925L82.8167 8.99649C88.7848 8.2148 95.483 8.65947 98.591 14.0424C102.158 20.221 98.3195 27.0737 94.1115 32.1196L93.0583 33.346L92.0145 34.4834C85.4895 41.4016 74.6815 49.4667 59.3098 58.3414C43.9381 67.2162 31.5527 72.543 22.2941 74.7383L21.5498 74.9068L20.0005 75.2298L18.3809 75.5106C12.0759 76.4702 4.72234 76.1331 1.30068 70.2119C-1.80269 64.829 1.16026 58.8095 4.81596 54.0304L5.87382 52.7011L6.41211 52.0645L7.47465 50.8568L8.50443 49.7335C7.38909 43.6577 7.62357 37.411 9.19125 31.436C10.7589 25.461 13.6214 19.9038 17.576 15.1583C21.5305 10.4128 26.4803 6.59498 32.0746 3.97543C37.669 1.35588 43.7709 -0.00131477 49.9482 9.5572e-07H49.9435ZM11.9027 60.2372L11.1818 61.2342C10.4095 62.3342 9.55761 63.6916 9.43122 64.9226V65.5218C10.0865 66.692 12.4129 66.7013 14.1214 66.575L15.5443 66.4345C14.1558 64.4748 12.9375 62.3999 11.9027 60.2325V60.2372ZM90.4698 18.7325C89.5243 18.0304 87.975 17.9649 86.5661 18.0538L85.232 18.1709C85.0261 18.1943 84.8342 18.2177 84.6516 18.2317C86.009 20.1976 87.2026 22.2853 88.2137 24.4759L88.9673 23.4227C89.852 22.1448 90.9332 20.324 90.6384 19.107L90.4839 18.7232L90.4698 18.7325Z" fill="white"/>
</svg>
