<svg xmlns="http://www.w3.org/2000/svg" width="23" height="23" viewBox="0 0 23 23" fill="none">
  <path d="M15.2663 10.9796L7.25511 3.34646C7.12144 3.21903 6.94385 3.14795 6.75918 3.14795C6.5745 3.14795 6.39691 3.21903 6.26324 3.34646L6.25461 3.35509C6.18959 3.41686 6.13781 3.49122 6.10243 3.57363C6.06705 3.65605 6.0488 3.7448 6.0488 3.83449C6.0488 3.92418 6.06705 4.01294 6.10243 4.09535C6.13781 4.17777 6.18959 4.25212 6.25461 4.3139L13.7986 11.5014L6.25461 18.686C6.18959 18.7478 6.13781 18.8222 6.10243 18.9046C6.06704 18.987 6.0488 19.0757 6.0488 19.1654C6.0488 19.2551 6.06704 19.3439 6.10243 19.4263C6.13781 19.5087 6.18959 19.5831 6.25461 19.6448L6.26324 19.6535C6.39691 19.7809 6.5745 19.852 6.75917 19.852C6.94385 19.852 7.12144 19.7809 7.25511 19.6535L15.2663 12.0203C15.3368 11.9532 15.3928 11.8725 15.4312 11.783C15.4695 11.6936 15.4893 11.5973 15.4893 11.5C15.4893 11.4026 15.4695 11.3063 15.4312 11.2169C15.3928 11.1274 15.3368 11.0467 15.2663 10.9796Z" fill="white"/>
</svg>