<svg xmlns="http://www.w3.org/2000/svg" width="23" height="23" viewBox="0 0 23 23" fill="none">
  <path d="M7.7337 12.0204L15.7449 19.6535C15.8786 19.781 16.0561 19.8521 16.2408 19.8521C16.4255 19.8521 16.6031 19.781 16.7368 19.6535L16.7454 19.6449C16.8104 19.5831 16.8622 19.5088 16.8976 19.4264C16.933 19.344 16.9512 19.2552 16.9512 19.1655C16.9512 19.0758 16.933 18.9871 16.8976 18.9046C16.8622 18.8222 16.8104 18.7479 16.7454 18.6861L9.20139 11.4986L16.7454 4.31398C16.8104 4.2522 16.8622 4.17785 16.8976 4.09543C16.933 4.01301 16.9512 3.92426 16.9512 3.83457C16.9512 3.74488 16.933 3.65613 16.8976 3.57371C16.8622 3.49129 16.8104 3.41694 16.7454 3.35516L16.7368 3.34654C16.6031 3.21911 16.4255 3.14803 16.2408 3.14803C16.0561 3.14803 15.8786 3.21911 15.7449 3.34654L7.7337 10.9797C7.66324 11.0468 7.60715 11.1275 7.56883 11.217C7.5305 11.3064 7.51074 11.4027 7.51074 11.5C7.51074 11.5974 7.5305 11.6937 7.56883 11.7831C7.60715 11.8726 7.66324 11.9533 7.7337 12.0204Z" fill="white"/>
</svg>