<svg width="233" height="247" viewBox="0 0 233 247" fill="none" xmlns="http://www.w3.org/2000/svg">
<circle cx="113.136" cy="127.479" r="99.5817" fill="black" stroke="black"/>
<circle cx="113.861" cy="126.754" r="110.361" stroke="black" stroke-width="7"/>
<path d="M68.4437 67.6539C62.7745 66.3122 82.5502 69.0282 81.3833 44.5248C82.5916 69.8985 106.279 65.8521 97.7556 66.6749C82.5196 68.1458 83.929 97.9816 83.6811 92.7765C83.4333 87.5714 82.6448 71.015 68.4437 67.6539Z" fill="white"/>
<path d="M68.4437 67.6539C62.7745 66.3122 82.5502 69.0282 81.3833 44.5248C82.5916 69.8985 106.279 65.8521 97.7556 66.6749C82.5196 68.1458 83.929 97.9816 83.6811 92.7765C83.4333 87.5714 82.6448 71.015 68.4437 67.6539Z" fill="white"/>
<path d="M68.4437 67.6539C62.7745 66.3122 82.5502 69.0282 81.3833 44.5248C82.5916 69.8985 106.279 65.8521 97.7556 66.6749C82.5196 68.1458 83.929 97.9816 83.6811 92.7765C83.4333 87.5714 82.6448 71.015 68.4437 67.6539Z" stroke="black"/>
<path d="M184.625 127.079C180.539 126.226 194.755 127.795 193.453 110.267C194.801 128.417 211.69 125.068 205.601 125.82C194.716 127.163 196.293 148.506 196.017 144.783C195.74 141.059 194.86 129.216 184.625 127.079Z" fill="white"/>
<path d="M184.625 127.079C180.539 126.226 194.755 127.795 193.453 110.267C194.801 128.417 211.69 125.068 205.601 125.82C194.716 127.163 196.293 148.506 196.017 144.783C195.74 141.059 194.86 129.216 184.625 127.079Z" fill="white"/>
<path d="M184.625 127.079C180.539 126.226 194.755 127.795 193.453 110.267C194.801 128.417 211.69 125.068 205.601 125.82C194.716 127.163 196.293 148.506 196.017 144.783C195.74 141.059 194.86 129.216 184.625 127.079Z" stroke="black"/>
<circle cx="118.938" cy="43.3521" r="5.80184" fill="white"/>
<circle cx="147.947" cy="204.353" r="5.80184" fill="white"/>
<circle cx="165.352" cy="195.65" r="2.90092" fill="white"/>
<path d="M76.338 167.758C51.4444 157.915 89.9858 145.507 114.006 140.312C116.463 139.781 122.664 142.412 122.195 146.874C112.368 240.382 104.998 178.421 100.085 184.163C82.8889 228.456 76.338 198.107 76.338 203.849C71.7524 219.597 66.2386 218.613 64.0549 216.152L36.2133 244.861C43.8561 233.651 58.1591 211.231 54.2286 211.231C41.1267 211.231 64.874 191.545 59.1417 191.545C48.4964 186.623 76.338 171.859 76.338 167.758Z" fill="white" stroke="black" stroke-width="4"/>
<path d="M113.136 112.249C124.159 118.631 119.179 126.028 115.312 128.929C115.312 131.105 131.267 145.61 131.992 142.709C132.717 139.808 141.42 136.182 144.321 136.182C153.023 140.243 157.133 154.312 158.1 160.839C153.265 163.499 144.611 169.542 148.672 172.443C153.749 176.069 168.253 168.092 171.879 165.191C175.884 161.987 170.429 139.808 168.253 126.754C166.078 113.7 224.827 41.7107 225.546 40.4513C228.447 35.3747 235.7 2.01416 226.997 2.01416C218.294 2.01416 196.537 11.4421 191.461 17.9692C181.307 31.0233 124.74 93.3931 119.663 93.3931C113.136 92.6679 80.5005 97.0193 80.5005 103.546C78.1798 122.112 81.4675 123.853 83.4015 122.402L87.7528 114.425C94.5216 112.249 109.075 108.768 113.136 112.249Z" fill="white" stroke="black" stroke-width="3"/>
<path d="M118.699 121.635C123.332 122.741 133.642 127.61 137.812 138.233" stroke="black" stroke-width="6"/>
<path d="M116.037 128.929C119.905 129.896 128.511 134.151 131.992 143.434" stroke="black" stroke-width="4"/>
<path d="M205.24 49.1538L149.397 125.303" stroke="black" stroke-width="3"/>
<path d="M216.649 38.9062C217.783 18.5278 202.867 23.143 196.398 25.3949C195.835 26.5208 195.048 28.6038 196.398 27.9282C209.899 25.226 212.502 29.3415 213.274 38.9062C214.399 39.4691 216.649 40.2573 216.649 38.9062Z" fill="black"/>
<path d="M226.082 38.8976C229.669 7.05437 203.585 11.0891 191.629 18.0723C191.629 17.374 192.635 17.9404 192.635 16.2644C192.635 14.1695 224.51 -1.48052 229.741 2.70938C234.972 14.5807 227.576 39.596 226.082 38.8976Z" fill="black" stroke="black"/>
</svg>
