<svg width="218" height="244" viewBox="0 0 218 244" fill="none" xmlns="http://www.w3.org/2000/svg">
<path d="M65.7628 147.5C55.7628 156.7 42.2628 161 36.7628 162C36.2628 162.833 35.8628 164.8 38.2628 166C57.2628 163.5 78.2628 136 65.7628 147.5Z" fill="black"/>
<path d="M80.0322 177.839C72.7926 183.887 63.0192 186.713 59.0374 187.371C58.6754 187.918 58.3858 189.211 60.1233 190C73.8786 188.357 89.0817 170.28 80.0322 177.839Z" fill="black"/>
<path d="M90.2628 101.5C68.2424 124.826 41.0122 141.464 28.901 144C27.8 146.113 26.7628 145.5 28.9011 147C68.7628 138.5 117.788 72.3427 90.2628 101.5Z" fill="black"/>
<path d="M102.263 116C93.8125 127.45 82.5407 136.136 77.2628 138C76.8983 138.98 77.0479 139.548 78.0989 140.058C95.4606 133.855 112.826 101.687 102.263 116Z" fill="black"/>
<path d="M73.7628 79.9999C48.1628 103.2 29.4295 104.667 23.2628 102.5C22.0961 105.5 20.4628 111.6 23.2628 112C37.6628 114.8 63.2628 93.1666 74.2628 81.9999C75.5961 79.8332 77.3628 76.3999 73.7628 79.9999Z" fill="black"/>
<path fill-rule="evenodd" clip-rule="evenodd" d="M127.222 172.658C124.931 178.285 122.034 184.218 119.763 188.5C119.911 189.018 120.342 189.628 121.16 189.902C119.903 190.607 118.742 191.251 117.702 191.828C110.903 195.603 109.242 196.525 119.131 193.117C121.933 192.151 124.737 190.93 127.503 189.524C126.609 192.479 122.505 199.274 119.763 203.5C124.763 203.5 138.063 201.5 151.263 193.5C167.763 183.5 192.263 156 192.263 118C192.263 110.5 191.305 103.112 189.568 95.9933C173.766 121.717 151.923 149.312 127.222 172.658ZM182.203 75.5902C170.586 51.6047 150.645 33.5363 131.763 29.5004C66.2631 15.4998 34.7631 65.5004 37.2631 65.5004C49.0964 57.3337 73.9631 41.4004 78.7631 43.0004C81.7353 43.9911 80.0452 47.4356 78.4334 50.7206C76.7914 54.0671 75.2306 57.2481 78.7631 57.5004C78.829 57.5051 78.8951 57.5088 78.9614 57.5116C74.9416 62.5519 70.5741 67.8671 66.827 71.9067C67.4045 72.9221 67.9814 73.0341 68.9356 72.606C70.4005 70.138 73.3527 66.6244 76.7093 62.6294C78.1392 60.9275 79.6425 59.1383 81.1356 57.3053C83.5225 56.7975 86.0817 55.4591 88.5672 54.1592C92.9983 51.8417 97.1949 49.6469 99.7631 52.5004C101.162 54.0553 102.127 56.8673 101.904 60.6507C98.1629 64.7145 94.2795 68.7935 90.8974 71.9928C90.2631 73.0001 91.2631 73.0001 92.2631 72.5001C94.6454 70.3344 97.9795 67.1731 101.531 63.5233C100.535 68.5879 97.5803 74.9466 91.3788 82.1095C72.0852 95.2724 57.7988 109.364 74.7631 97.0004C81.9182 91.7857 87.3378 86.7768 91.3788 82.1095C105.636 72.3827 122.627 63.1632 131.763 65.5004C133.269 65.8857 134.481 66.5409 135.432 67.428C130.452 73.3095 125.219 79.2201 120.942 84.0508L120.942 84.0512L120.942 84.0515C112.174 93.9551 107.425 99.3194 117.113 90.5866C123.952 84.4212 130.995 76.409 136.828 69.1968C139.856 74.4493 137.781 84.1329 133.836 94.5631C129.421 99.7248 124.923 104.805 121.164 109.051C112.396 118.955 107.647 124.319 117.335 115.587C121.967 111.411 126.692 106.388 131.072 101.34C126.565 111.712 120.928 122.042 117.208 128.859L117.208 128.859L117.208 128.86L117.208 128.86L117.207 128.861C115.745 131.54 114.579 133.676 113.894 135.06C110.607 138.22 107.575 141.055 105.061 143.406C97.0367 150.909 94.2827 153.484 105.305 145.998C108.784 143.636 112.184 140.84 115.447 137.823C118.771 137.211 124.97 134.12 128.763 132C127.304 136.206 125.544 142.551 125.109 147.661C148.123 125.528 169.575 99.9309 182.203 75.5902ZM115.447 137.823C124.921 129.064 133.246 118.433 139.003 111.08L139.003 111.08C140.076 109.71 141.06 108.453 141.945 107.344C142.598 105.796 142.433 104.38 140.889 105.545C133.437 115.692 122.74 126.556 113.894 135.06C113.569 135.718 113.352 136.206 113.263 136.5C112.866 137.823 113.806 138.125 115.447 137.823ZM131.072 101.34C137.683 93.7204 143.507 86.0439 147.032 81.1395C147.54 79.7397 147.367 78.4409 146.104 79.4683C142.66 84.0671 138.29 89.3564 133.836 94.5631C132.99 96.7999 132.058 99.0711 131.072 101.34ZM136.828 69.1968C140.909 64.1505 144.398 59.4959 146.81 56.1396C147.318 54.7398 147.145 53.441 145.882 54.4684C142.908 58.4394 139.244 62.9251 135.432 67.428C135.982 67.9421 136.446 68.5342 136.828 69.1968ZM101.531 63.5233C106.179 58.7467 111.2 53.1335 114.948 47.8209C120.457 40.011 116.938 43.9436 110.442 51.2042C107.926 54.0167 104.962 57.3286 101.904 60.6507C101.851 61.5542 101.73 62.513 101.531 63.5233ZM81.1356 57.3053C84.0984 53.6678 87.0207 49.858 89.2483 46.2168C94.236 38.064 90.9816 42.2178 84.9731 49.8869L84.9729 49.8871L84.9716 49.8887C83.167 52.1921 81.114 54.8124 78.9614 57.5116C79.6644 57.5411 80.3916 57.4635 81.1356 57.3053ZM127.503 189.524C139.509 183.419 150.798 173.824 158.086 166.505C158.988 165.207 159.198 163.802 157.669 164.479C146.901 175.037 131.032 184.363 121.16 189.902C122.185 190.243 123.817 190.057 126.263 188.5C127.647 187.619 127.913 188.167 127.503 189.524Z" fill="black"/>
<path d="M153.263 48C185.263 63.5 213.263 141.5 150.263 192.5" stroke="white" stroke-width="3"/>
<path fill-rule="evenodd" clip-rule="evenodd" d="M183.222 12.5657C173.592 15.4075 161.331 22.3098 146.393 36.135L144.356 33.9333C160.37 19.1119 173.615 11.8863 184.136 9.20259C183.728 10.2222 183.418 11.3648 183.222 12.5657ZM195.928 11.0058C202.802 11.5539 207.198 14.6297 209.306 17.5494L209.38 17.6518L209.47 17.7405C213.892 22.0919 215.629 29.0939 214.596 38.4272C213.566 47.7388 209.799 59.1034 203.579 71.7936C191.145 97.1592 169.063 127.509 140.256 156.783C111.45 186.056 82.4898 207.424 58.3666 219.07C46.2992 224.896 35.5186 228.252 26.6194 228.995C17.7295 229.737 10.9106 227.864 6.44559 223.484C4.29426 221.2 1.48885 215.505 3.96867 205.139C6.46463 194.705 14.313 179.609 33.4767 158.853L31.2725 156.818C11.9362 177.761 3.71489 193.305 1.05099 204.441C-1.62233 215.616 1.30032 222.418 4.28608 225.566L4.30395 225.585L4.32246 225.604C9.63817 230.834 17.4745 232.769 26.8689 231.985C36.2666 231.2 47.4179 227.687 59.671 221.772C84.1887 209.935 113.423 188.329 142.394 158.888C171.365 129.448 193.662 98.8399 206.272 73.1141C212.574 60.2586 216.495 48.5441 217.578 38.757C218.653 29.0458 216.952 20.9656 211.663 15.6906C208.737 11.7129 202.876 8.05865 194.215 7.92432C194.918 8.7858 195.502 9.81488 195.928 11.0058Z" fill="black"/>
<path fill-rule="evenodd" clip-rule="evenodd" d="M184.327 22.1357C183.23 22.2149 182.055 22.3906 180.805 22.6775C174.13 24.2092 165.072 28.9293 153.373 39.4177L155.376 41.6514C166.877 31.3397 175.489 26.9754 181.476 25.6015C183.353 25.1709 184.95 25.0358 186.292 25.0948C185.589 24.3512 184.922 23.38 184.327 22.1357ZM191.629 27.1189C192.817 26.9191 193.809 26.3336 194.373 25.6467C197.857 29.331 198.378 35.319 196.97 42.4106C195.482 49.9027 191.751 59.1376 186.183 69.4762C175.037 90.1735 156.361 115.602 132.811 140.891C109.264 166.177 86.3744 185.515 67.6598 197.005C58.3117 202.744 49.9275 206.573 42.9731 208.17C36.0663 209.756 30.1975 209.213 26.3523 205.632L26.3453 205.626L26.3383 205.619C24.2035 203.579 22.206 199.545 23.4796 193.126C24.7385 186.782 29.1811 178.117 39.7668 166.523L41.9823 168.546C31.568 179.952 27.5291 188.132 26.4222 193.71C25.332 199.205 27.0766 202.17 28.4041 203.443C31.1565 206 35.754 206.749 42.3017 205.246C48.8075 203.752 56.8751 200.105 66.0902 194.448C84.5022 183.144 107.185 164.007 130.616 138.846C154.043 113.689 172.549 88.4669 183.542 68.0537C189.044 57.8369 192.622 48.9016 194.027 41.8263C195.451 34.6563 194.557 29.8884 191.862 27.3788L191.785 27.3069L191.718 27.2249C191.69 27.1897 191.66 27.1544 191.629 27.1189Z" fill="black"/>
<path fill-rule="evenodd" clip-rule="evenodd" d="M114.615 203.476C160.435 199.715 194.624 157.523 190.637 108.94C190.33 105.197 189.805 101.528 189.077 97.9464L191.336 94.2628C192.447 98.9319 193.221 103.752 193.627 108.695C197.738 158.785 162.473 202.558 114.86 206.466C106.245 207.173 97.8156 206.526 89.7628 204.696C89.0542 204.535 88.3486 204.364 87.6459 204.185L90.9913 201.896C98.5797 203.563 106.51 204.141 114.615 203.476ZM182.91 71.9239C166.789 41.6033 134.911 22.208 99.9729 25.0755C52.3604 28.9832 17.0954 72.7566 21.2065 122.846C23.8222 154.716 41.7485 181.465 66.7075 195.7L69.648 193.903C44.8007 180.383 26.7828 154.114 24.1964 122.601C20.209 74.0178 54.3982 31.8261 100.218 28.0655C134.516 25.2505 165.896 44.7431 181.181 75.1006L182.91 71.9239Z" fill="black"/>
<path d="M14.7628 215.5C-0.8372 204.7 22.2628 177 35.7628 164.5H36.7628C37.4295 165 38.3628 166 36.7628 166C4.7628 195.2 9.42947 210.833 15.7628 215C15.7628 215.333 15.5628 215.9 14.7628 215.5Z" fill="black"/>
<path d="M6.73326 211.457C11.3276 229.866 46.8006 218.913 63.2629 210.698L65.7628 209.5L97.7628 188.5C97.7628 188.5 101.263 184.5 97.2632 187C93.2636 189.5 67.7628 205.729 65.2629 207C26.643 226.625 9.21555 218.095 7.55422 210.698C7.24236 210.581 6.64158 210.568 6.73326 211.457Z" fill="black"/>
<path d="M117.263 169C117.263 169 114.141 170.5 116.263 170.5C133.063 163.3 159.097 133.321 173.763 113L200.875 67.6692C200.875 67.6692 202.276 62.5423 199.77 66.5381C197.264 70.5339 172.457 109.765 170.763 112C144.592 146.521 122.263 166.5 117.263 169Z" fill="black"/>
<path fill-rule="evenodd" clip-rule="evenodd" d="M195.763 30C204.047 30 210.763 23.2843 210.763 15C210.763 6.71573 204.047 0 195.763 0C187.479 0 180.763 6.71573 180.763 15C180.763 23.2843 187.479 30 195.763 30ZM189.763 5C195.263 6.5 199.263 13.5 194.763 25C193.852 27.3281 187.763 29.5 184.263 22C181.029 15.069 184.263 3.49996 189.763 5Z" fill="black"/>
</svg>
