<svg width="214" height="248" viewBox="0 0 214 248" fill="none" xmlns="http://www.w3.org/2000/svg">
<path d="M191.5 233.5C196.3 242.3 183.167 242.167 176 241C184.5 252 205.5 244 202 230C199.2 218.8 190.167 217.667 186 218.5C184.667 221.333 182.8 226.6 186 225C190 223 199.5 224.5 194.5 227C178.5 232 190 230.5 191.5 233.5Z" fill="black"/>
<path d="M95.5844 0C95.5844 4.22328 94.0868 14.485 88.0966 15.9946C80.6088 17.8816 95.5844 12.4003 95.5844 31.0906C95.5844 39.3574 94.5255 18.241 104.509 15.9946C107.535 16.5337 95.5844 16.0844 95.5844 0Z" stroke="black" stroke-width="3"/>
<path d="M204.575 118C204.575 121.199 203.236 128.973 197.876 130.117C191.176 131.547 204.575 127.394 204.575 141.553C204.575 147.816 203.628 131.819 212.561 130.117C215.268 130.526 204.575 130.185 204.575 118Z" stroke="black" stroke-width="2"/>
<path d="M164.5 41.5002C170.5 35.1002 163.333 35.1669 159 36.0002C156.5 36.8336 153 37.9002 159 35.5002C166.5 32.5002 170.5 35.0002 175 37.0002C178.6 38.6002 181.167 44.0002 182 46.5002C182.167 49.6669 181.6 57.1002 178 61.5002C173.5 67.0002 167.5 66.5002 166.5 66.5002C162.5 69.5002 151 61.5002 154 61.5002C167 63.5002 175 56.5002 170 56.5002C155.5 56.0002 167.5 51.0002 170 50.5002C172 50.1002 170.833 48.0002 170 47.0002C165.667 47.8336 158.5 47.9002 164.5 41.5002Z" fill="black"/>
<path d="M73.5637 158.571C56.9787 166.758 60.2186 173.214 63.9117 175.419C61.7069 179.112 63.4 187.501 67.0998 183.685C86.5 166 77.9666 157.206 73.5637 158.571Z" fill="black"/>
<path d="M45.5 194.5C33.1 206.5 36.6667 216.833 40 220.5C44.5001 225 44.5 215.5 52.5 206.5C60.5 197.5 50.5 190 45.5 194.5Z" fill="black"/>
<path d="M40.5 163C28.1 171 19.3333 190 16.5 199C15.8333 199.5 14.5 200.2 14.5 199C17.7 182.2 31.5 166.667 38 161C40 159.5 42.5 161 40.5 163Z" fill="black"/>
<path d="M25 139.5C13.8 149.1 6.33333 166.833 4 174.5C4.83333 178.167 6.9 185.5 8.5 185.5C13 168 26.5 151.5 31.5 146C36.5 140.5 29.5 136 25 139.5Z" fill="black" stroke="black"/>
<path d="M72.5 217C80.5 214.833 95.7 207.9 92.5 197.5C90.5 193 70.5 200 72.5 217Z" fill="black" stroke="black"/>
<circle cx="86" cy="153" r="84.5" stroke="black" stroke-width="3"/>
<path fill-rule="evenodd" clip-rule="evenodd" d="M73 222.5L71 231.5C70.1667 232 65.5 235 67.5 235C113.1 246.2 146.167 215.667 157 199C163.833 188.5 175.4 159.6 167 128C156.5 88.5 115 72 104.5 70.0001C64.5 62.8001 38.5 79.3334 30.5 88.5001L17 104.5C13.8088 110.883 25.8303 104.789 29.6029 102.877L29.603 102.877L29.6031 102.877C30.559 102.393 30.9852 102.177 30.5 102.5C27.1704 111.009 26.4063 114.209 30.007 114.568C33.5908 104.469 47.9799 89.6174 63.8401 83.1328C72.5 81.5 71 86 66.0002 87C58.1145 91.4047 40.4622 101.393 33.8093 114.302C34.3357 114.218 34.8988 114.116 35.5 114C43.9482 112.365 51.9507 106.125 57.2408 102C61.6566 98.5573 64.1825 96.5878 63.5001 100C52.0001 115.5 61.5001 122.5 67.5 117C82 98 87 108 82 112.5C77.8549 117.921 74.6884 122.642 72.3018 126.74C78.4665 121.451 84.6714 117.886 92.9139 115.444C94.108 115.324 93.5444 116.72 93.1133 117.434C87.8262 119.699 76.0611 127.098 68.4999 133.5L71.7181 127.523C65.1275 133.031 60.0494 138.945 57.4457 142.614C56.1525 144.754 57.8943 147.092 59.6849 144.903C61.8305 140.711 65.1274 136.776 68.9042 133.24C61.6267 149.202 69.0033 152.371 70.5 150.5C104.5 123 130 124.621 126 126C79.6543 141.981 89.8161 153.174 94.2405 158.047C95.353 159.272 96.1028 160.098 95.5 160.5C80 174.63 86 183 88.5 183C91 183 93.5 181.5 103.5 174.63C116.072 169.283 123.586 170.392 121 171.5C104 176.5 82.5 193 86 194C113.2 197.6 88.6667 214.5 73 222.5ZM98.2086 74.0315C147.709 74.0314 200.209 155.529 141.209 214.029C137.708 217.5 136.808 214.893 140 212C172 183 177.5 97.5 98.2086 75.5286C98.1145 75.4858 98.0184 75.4424 97.9213 75.3987C96.2987 74.6668 94.4343 73.8259 98.2086 74.0315Z" fill="black"/>
<circle cx="165.5" cy="50.5" r="16.5" stroke="black" stroke-width="2"/>
<circle cx="187.5" cy="232.5" r="14.5" stroke="black" stroke-width="2"/>
<circle cx="32.5" cy="37.5" r="4.5" fill="black"/>
<circle cx="186.5" cy="72.5" r="4.5" fill="black"/>
</svg>
