<svg width="218" height="244" viewBox="0 0 218 244" fill="none" xmlns="http://www.w3.org/2000/svg">
<path d="M65.7628 147.5C55.7628 156.7 42.2628 161 36.7628 162C36.2628 162.833 35.8628 164.8 38.2628 166C57.2628 163.5 78.2628 136 65.7628 147.5Z" fill="black"/>
<path d="M80.0322 177.839C72.7926 183.887 63.0192 186.713 59.0374 187.371C58.6754 187.918 58.3858 189.211 60.1233 190C73.8786 188.357 89.0817 170.28 80.0322 177.839Z" fill="black"/>
<path d="M90.2628 101.5C68.2424 124.826 41.0122 141.464 28.901 144C27.8 146.113 26.7628 145.5 28.9011 147C68.7628 138.5 117.788 72.3427 90.2628 101.5Z" fill="black"/>
<path d="M102.263 116C93.8125 127.45 82.5407 136.136 77.2628 138C76.8983 138.98 77.0479 139.548 78.0989 140.058C95.4606 133.855 112.826 101.687 102.263 116Z" fill="black"/>
<path d="M73.7628 79.9999C48.1628 103.2 29.4295 104.667 23.2628 102.5C22.0961 105.5 20.4628 111.6 23.2628 112C37.6628 114.8 63.2628 93.1666 74.2628 81.9999C75.5961 79.8332 77.3628 76.3999 73.7628 79.9999Z" fill="black"/>
<path fill-rule="evenodd" clip-rule="evenodd" d="M127.222 172.657C124.931 178.285 122.034 184.218 119.763 188.5C119.911 189.018 120.342 189.629 121.16 189.902C119.903 190.607 118.743 191.251 117.703 191.828C110.903 195.603 109.243 196.525 119.131 193.117C121.933 192.151 124.737 190.93 127.503 189.524C126.609 192.479 122.505 199.274 119.763 203.5C124.747 203.5 137.977 201.513 151.135 193.578L151.207 193.666C151.426 193.489 151.644 193.311 151.861 193.133C168.348 182.839 192.263 155.544 192.263 118C192.263 110.5 191.305 103.112 189.569 95.9933C188.951 96.9982 188.325 98.006 187.689 99.0162C188.184 101.556 188.583 104.144 188.878 106.77C192.034 134.856 183.257 167.369 151.861 193.133C151.66 193.258 151.461 193.38 151.263 193.5L151.135 193.578L149.319 191.334C180.39 166.181 188.97 134.45 185.897 107.105C185.733 105.641 185.535 104.189 185.305 102.752C169.94 126.491 149.772 151.345 127.222 172.657ZM180.985 77.8919C179.6 74.8305 178.077 71.917 176.441 69.1766C170.202 58.7226 162.258 50.6905 153.917 46.65L152.609 49.35C160.267 53.0595 167.823 60.5899 173.865 70.714C175.806 73.9654 177.584 77.4741 179.154 81.1942C166.285 103.825 146.363 127.22 125.109 147.661C125.545 142.551 127.304 136.206 128.763 132C124.97 134.12 118.771 137.211 115.448 137.823C124.921 129.064 133.246 118.433 139.003 111.08C140.076 109.71 141.06 108.453 141.946 107.344C142.598 105.796 142.433 104.38 140.889 105.545C133.437 115.692 122.74 126.556 113.895 135.06C114.58 133.676 115.746 131.539 117.208 128.86C120.928 122.042 126.565 111.712 131.072 101.34C137.684 93.7204 143.507 86.0439 147.032 81.1395C147.54 79.7397 147.367 78.4409 146.104 79.4683C142.66 84.0671 138.29 89.3564 133.836 94.563C137.781 84.1329 139.856 74.4493 136.828 69.1968C140.909 64.1506 144.398 59.496 146.81 56.1396C147.318 54.7398 147.145 53.441 145.882 54.4684C142.908 58.4394 139.244 62.9252 135.432 67.428C134.481 66.5409 133.269 65.8857 131.763 65.5004C122.627 63.1632 105.636 72.3828 91.3789 82.1095C97.5804 74.9466 100.535 68.5879 101.531 63.5233C106.179 58.7467 111.2 53.1335 114.948 47.8209C120.457 40.0111 116.938 43.9436 110.442 51.2042C107.926 54.0167 104.962 57.3286 101.904 60.6507C102.127 56.8673 101.163 54.0553 99.7632 52.5004C97.195 49.6469 92.9984 51.8417 88.5673 54.1592C86.0818 55.4591 83.5226 56.7976 81.1356 57.3053C84.0984 53.6678 87.0207 49.8581 89.2483 46.2168C94.236 38.064 90.9816 42.2179 84.9731 49.8869L84.9727 49.8874L84.9722 49.888L84.9718 49.8886C83.1671 52.192 81.1141 54.8124 78.9614 57.5116C78.8951 57.5088 78.829 57.5051 78.7632 57.5004C75.2307 57.2481 76.7915 54.0672 78.4335 50.7206C80.0453 47.4357 81.7354 43.9911 78.7632 43.0004C73.9632 41.4004 49.0965 57.3337 37.2632 65.5004C34.7632 65.5004 66.2632 15.4999 131.763 29.5004C150.645 33.5363 170.586 51.6047 182.203 75.5902C181.805 76.3562 181.399 77.1235 180.985 77.8919ZM78.9614 57.5116C79.6644 57.5411 80.3917 57.4635 81.1356 57.3053C79.6426 59.1383 78.1393 60.9275 76.7093 62.6294C73.3527 66.6244 70.4006 70.138 68.9356 72.606C67.9815 73.0341 67.4045 72.9221 66.827 71.9067C70.5742 67.8671 74.9416 62.5519 78.9614 57.5116ZM101.904 60.6507C101.851 61.5542 101.73 62.513 101.531 63.5233C97.9796 67.1731 94.6455 70.3344 92.2632 72.5001C91.2632 73.0002 90.2631 73.0001 90.8975 71.9928C94.2796 68.7936 98.163 64.7145 101.904 60.6507ZM91.3789 82.1095C72.0853 95.2725 57.7989 109.364 74.7632 97.0004C81.9183 91.7857 87.3379 86.7769 91.3789 82.1095ZM135.432 67.428C135.983 67.9422 136.446 68.5343 136.828 69.1968C130.995 76.409 123.952 84.4212 117.113 90.5867C107.426 99.3194 112.174 93.9552 120.942 84.0515C125.219 79.2207 130.452 73.3097 135.432 67.428ZM133.836 94.563C132.99 96.7999 132.058 99.071 131.072 101.34C126.692 106.388 121.967 111.411 117.335 115.587C107.647 124.319 112.396 118.955 121.164 109.051C124.923 104.805 129.421 99.7247 133.836 94.563ZM113.895 135.06C113.569 135.718 113.352 136.206 113.263 136.5C112.867 137.823 113.807 138.125 115.448 137.823C112.184 140.84 108.784 143.636 105.306 145.998C94.2828 153.484 97.0368 150.909 105.061 143.406L105.062 143.406C107.576 141.055 110.607 138.22 113.895 135.06ZM127.503 189.524C139.509 183.419 150.798 173.824 158.086 166.505C158.988 165.207 159.198 163.802 157.67 164.479C146.901 175.037 131.032 184.363 121.16 189.902C122.185 190.243 123.817 190.057 126.263 188.5C127.647 187.619 127.913 188.167 127.503 189.524Z" fill="black"/>
<path fill-rule="evenodd" clip-rule="evenodd" d="M183.222 12.5657C173.592 15.4075 161.331 22.3098 146.393 36.135L144.356 33.9333C160.37 19.1119 173.615 11.8863 184.136 9.20259C183.728 10.2222 183.418 11.3648 183.222 12.5657ZM195.928 11.0058C202.802 11.5539 207.198 14.6297 209.306 17.5494L209.38 17.6518L209.47 17.7405C213.892 22.0919 215.629 29.0939 214.596 38.4272C213.566 47.7388 209.799 59.1034 203.579 71.7936C191.145 97.1592 169.063 127.509 140.256 156.783C111.45 186.056 82.4898 207.424 58.3666 219.07C46.2992 224.896 35.5186 228.252 26.6194 228.995C17.7295 229.737 10.9106 227.864 6.44559 223.484C4.29426 221.2 1.48885 215.505 3.96867 205.139C6.46463 194.705 14.313 179.609 33.4767 158.853L31.2725 156.818C11.9362 177.761 3.71489 193.305 1.05099 204.441C-1.62233 215.616 1.30032 222.418 4.28608 225.566L4.30395 225.585L4.32246 225.604C9.63817 230.834 17.4745 232.769 26.8689 231.985C36.2666 231.2 47.4179 227.687 59.671 221.772C84.1887 209.935 113.423 188.329 142.394 158.888C171.365 129.448 193.662 98.8399 206.272 73.1141C212.574 60.2586 216.495 48.5441 217.578 38.757C218.653 29.0458 216.952 20.9656 211.663 15.6906C208.737 11.7129 202.876 8.05865 194.215 7.92432C194.918 8.7858 195.502 9.81488 195.928 11.0058Z" fill="black"/>
<path fill-rule="evenodd" clip-rule="evenodd" d="M184.327 22.1357C183.23 22.2149 182.055 22.3906 180.805 22.6775C174.13 24.2092 165.072 28.9293 153.373 39.4177L155.376 41.6514C166.877 31.3397 175.489 26.9754 181.476 25.6015C183.353 25.1709 184.95 25.0358 186.292 25.0948C185.589 24.3512 184.922 23.38 184.327 22.1357ZM191.629 27.1189C192.817 26.9191 193.809 26.3336 194.373 25.6467C197.857 29.331 198.378 35.319 196.97 42.4106C195.482 49.9027 191.751 59.1376 186.183 69.4762C175.037 90.1735 156.361 115.602 132.811 140.891C109.264 166.177 86.3744 185.515 67.6598 197.005C58.3117 202.744 49.9275 206.573 42.9731 208.17C36.0663 209.756 30.1975 209.213 26.3523 205.632L26.3453 205.626L26.3383 205.619C24.2035 203.579 22.206 199.545 23.4796 193.126C24.7385 186.782 29.1811 178.117 39.7668 166.523L41.9823 168.546C31.568 179.952 27.5291 188.132 26.4222 193.71C25.332 199.205 27.0766 202.17 28.4041 203.443C31.1565 206 35.754 206.749 42.3017 205.246C48.8075 203.752 56.8751 200.105 66.0902 194.448C84.5022 183.144 107.185 164.007 130.616 138.846C154.043 113.689 172.549 88.4669 183.542 68.0537C189.044 57.8369 192.622 48.9016 194.027 41.8263C195.451 34.6563 194.557 29.8884 191.862 27.3788L191.785 27.3069L191.718 27.2249C191.69 27.1897 191.66 27.1544 191.629 27.1189Z" fill="black"/>
<path fill-rule="evenodd" clip-rule="evenodd" d="M114.615 203.476C160.435 199.715 194.624 157.523 190.637 108.94C190.33 105.197 189.805 101.528 189.077 97.9464L191.336 94.2628C192.447 98.9319 193.221 103.752 193.627 108.695C197.738 158.785 162.473 202.558 114.86 206.466C106.245 207.173 97.8156 206.526 89.7628 204.696C89.0542 204.535 88.3486 204.364 87.6459 204.185L90.9913 201.896C98.5797 203.563 106.51 204.141 114.615 203.476ZM182.91 71.9239C166.789 41.6033 134.911 22.208 99.9729 25.0755C52.3604 28.9832 17.0954 72.7566 21.2065 122.846C23.8222 154.716 41.7485 181.465 66.7075 195.7L69.648 193.903C44.8007 180.383 26.7828 154.114 24.1964 122.601C20.209 74.0178 54.3982 31.8261 100.218 28.0655C134.516 25.2505 165.896 44.7431 181.181 75.1006L182.91 71.9239Z" fill="black"/>
<path d="M14.7628 215.5C-0.8372 204.7 22.2628 177 35.7628 164.5H36.7628C37.4295 165 38.3628 166 36.7628 166C4.7628 195.2 9.42947 210.833 15.7628 215C15.7628 215.333 15.5628 215.9 14.7628 215.5Z" fill="black"/>
<path d="M6.73326 211.457C11.3276 229.866 46.8006 218.913 63.2629 210.698L65.7628 209.5L97.7628 188.5C97.7628 188.5 101.263 184.5 97.2632 187C93.2636 189.5 67.7628 205.729 65.2629 207C26.643 226.625 9.21555 218.095 7.55422 210.698C7.24236 210.581 6.64158 210.568 6.73326 211.457Z" fill="black"/>
<path d="M117.263 169C117.263 169 114.141 170.5 116.263 170.5C133.063 163.3 159.097 133.321 173.763 113L200.875 67.6692C200.875 67.6692 202.276 62.5423 199.77 66.5381C197.264 70.5339 172.457 109.765 170.763 112C144.592 146.521 122.263 166.5 117.263 169Z" fill="black"/>
<path fill-rule="evenodd" clip-rule="evenodd" d="M195.763 30C204.047 30 210.763 23.2843 210.763 15C210.763 6.71573 204.047 0 195.763 0C187.479 0 180.763 6.71573 180.763 15C180.763 23.2843 187.479 30 195.763 30ZM189.763 5C195.263 6.5 199.263 13.5 194.763 25C193.852 27.3281 187.763 29.5 184.263 22C181.029 15.069 184.263 3.49996 189.763 5Z" fill="black"/>
</svg>
