<svg width="207" height="216" viewBox="0 0 207 216" fill="none" xmlns="http://www.w3.org/2000/svg">
<path fill-rule="evenodd" clip-rule="evenodd" d="M192.471 4.04042C192.151 4.01365 191.827 4 191.5 4C185.149 4 180 9.14873 180 15.5C180 19.5533 182.097 23.1168 185.265 25.1648C185.083 24.9334 184.915 24.701 184.763 24.4708C198.371 20.6412 195.65 9.41826 192.471 4.04042ZM206 15.5C206 23.5081 199.508 30 191.5 30C183.492 30 177 23.5081 177 15.5C177 7.49187 183.492 1 191.5 1C199.508 1 206 7.49187 206 15.5ZM11 100.5C11 120.43 17.8996 138.748 29.4404 153.196C39.5206 156.861 50.7826 159.436 59.9914 159.993C63.4412 165.384 68.8626 172.835 78.4752 172.835C83.2101 172.835 82.79 172.64 79.5439 171.138C75.9983 169.496 69.0812 166.294 61.8273 160.079C70.5289 160.353 77.0672 158.649 78.436 154.104C83.1442 157.769 89.5109 161.297 97.2039 159.02C101.744 157.676 101.286 157.609 97.7468 157.089C94.0413 156.545 86.9581 155.505 78.6974 151.985C78.6412 150.171 77.9473 148.021 76.5 145.5C75.7448 144.912 74.7574 144.184 73.5833 143.319C60.7652 133.867 25.7098 108.018 28 69.9998C28 67.4059 29.2511 69.7053 31.9697 74.7016C40.7799 90.8935 65.0021 135.41 112 133.5C113.077 133.5 112.054 133.198 109.539 132.455C96.8708 128.716 46.3463 113.802 35.5 69.9998C34.863 67.4272 36.8077 69.7314 40.8068 74.4697C50.5867 86.0572 72.6526 112.202 99.2909 117.177C98.4069 116.72 97.6217 116.289 96.9541 115.902C98.1631 116.409 101.012 117.097 104.567 117.871C105.54 117.944 106.517 117.988 107.5 118C113.489 116.157 117.356 103.701 117.927 92.7577C122.902 93.3344 128.191 93.3439 132.692 92.0942C140.662 89.8812 128.626 89.8477 117.464 89.8166L117.459 89.8166L117.455 89.8165L117.451 89.8165L117.447 89.8165L117.442 89.8165L117.438 89.8164L117.434 89.8164L117.43 89.8164L117.425 89.8164L117.421 89.8163C116.111 89.8127 114.814 89.8092 113.563 89.802C100.82 88.6608 75.6256 81.5006 46 41.9998C44.7348 39.1531 50.4228 43.6098 58.5862 50.006L58.5863 50.006L58.5863 50.0061C76.2321 63.8319 105.444 86.72 101 64.4998C101 62.5071 98.9653 62.0896 94.872 61.2498C87.6678 59.7718 74.087 56.9854 54 41.9998C51.2116 39.3857 55.5301 41.1451 62.9965 44.1869L62.9965 44.1869L62.9966 44.1869C75.3262 49.21 96.2399 57.7302 107.908 55.8274C108.8 56.3149 110.817 56.4677 114.68 56.1485C127.438 55.0946 143.057 46.639 132.044 50.2784C125.63 52.3982 118.61 52.4459 113.771 51.9821C115.115 48.9092 115.684 43.8293 113.965 38.6635C124.235 39.5099 136.564 34.5687 127.5 35.9999C121.518 36.9445 115.349 35.266 111.531 33.6959C105.911 25.2861 92.4973 18.3764 64.1782 21.9952C33.0172 34.4389 11 64.8983 11 100.5ZM111.972 183.395C114.246 182.946 116.487 182.406 118.691 181.778C118.887 181.5 119 181.233 119 181C119 179.895 114.645 179 112.636 179C110.628 179 109 179.895 109 181C109 181.709 110.422 182.745 111.972 183.395ZM187 100.5C187 151.034 146.034 192 95.5 192C44.9659 192 4 151.034 4 100.5C4 49.9659 44.9659 9 95.5 9C146.034 9 187 49.9659 187 100.5ZM42 67.7216C47.0649 72.4127 49.8701 70.5579 52.4972 67.7216C55.1242 64.8853 52.0648 55.4247 47 50.7336C41.9352 46.0425 35.127 45.6639 32.5 48.5002C27.2938 54.1212 36.4507 62.5895 41.6073 67.3583L42 67.7216ZM47.1267 142.555C44.4996 145.391 41.8401 147.381 38.0366 143.858L37.7416 143.585C33.8682 140.005 26.99 133.648 32.1962 128.027C34.8233 125.19 40.6718 124.68 44.4754 128.203C48.2789 131.726 49.7537 139.719 47.1267 142.555ZM90.6322 44.3218C94.2965 45.6761 95.5111 43.692 96.4473 41.159C97.3835 38.6259 93.9573 33.7389 90.293 32.3846C86.6287 31.0303 82.7879 32.8492 81.8517 35.3823C79.9964 40.4023 86.6188 42.8427 90.3482 44.2171L90.6322 44.3218ZM109.126 107.448C109.965 105.046 110.178 102.842 105.888 101.345L105.555 101.229C101.192 99.702 93.4435 96.9908 91.7817 101.752C90.9432 104.154 93.2637 107.996 97.5536 109.493C101.844 110.99 108.288 109.85 109.126 107.448ZM66 31C67.1046 31 68.5 29.1046 68.5 28C68.5 26.8954 66.1046 26 65 26C63.8954 26 63 26.8954 63 28C63 29.1046 64.8954 31 66 31ZM144.212 101.112C145.233 102.279 145.372 105.695 144.095 106.814C142.817 107.932 138.872 107.85 137.85 106.683C136.828 105.516 137.036 103.664 138.313 102.545C139.591 101.426 143.19 99.9457 144.212 101.112ZM121.764 69.5672C129.17 69.7602 138.811 70.0115 148 64.9995C164.5 55.9997 157.5 69.4997 132.5 76.4998C119.793 80.0579 116.383 75.469 118 69.4996C119.172 69.4996 120.431 69.5325 121.763 69.5672L121.764 69.5672ZM117.5 143.5C123.5 144.333 137.8 144.8 147 140C154.333 136.174 142.556 138.65 131.632 140.947L131.632 140.947L131.631 140.947C125.424 142.253 119.493 143.5 117.5 143.5ZM136.279 159.321C129.331 162.511 118.531 162.201 114 161.647C115.505 161.647 119.985 160.818 124.673 159.951C132.923 158.424 141.818 156.778 136.279 159.321ZM51.5 114.5C62.3333 125.167 86.5821 144.5 97.5 144.5C101 144.5 102.5 146.603 96 147.5C86.3333 148.833 67.5 138 51.5 118.5C45.9 110.5 49.1667 112.5 51.5 114.5ZM10.2015 211.253C9.76016 211.015 9.35699 210.759 9 210.5C21.4 204.5 15.5 196 11 192.5C11.0344 192.475 11.0688 192.45 11.1032 192.426C6.99288 193.668 4 197.484 4 202C4 206.178 6.56241 209.758 10.2015 211.253ZM27 202C27 209.18 21.1797 215 14 215C6.8203 215 1 209.18 1 202C1 194.82 6.8203 189 14 189C21.1797 189 27 194.82 27 202ZM183 193.5C183 189.419 185.875 186.01 189.711 185.189C192.624 189.008 195.508 196.813 185.383 199.402C183.908 197.873 183 195.793 183 193.5ZM191.5 205C197.851 205 203 199.851 203 193.5C203 187.149 197.851 182 191.5 182C185.149 182 180 187.149 180 193.5C180 199.851 185.149 205 191.5 205Z" fill="black"/>
<path d="M192.471 4.04042L192.901 3.78598L192.77 3.56367L192.513 3.54215L192.471 4.04042ZM185.265 25.1648L184.994 25.5847L185.658 24.8554L185.265 25.1648ZM184.763 24.4708L184.628 23.9895L183.968 24.1752L184.346 24.7467L184.763 24.4708ZM29.4404 153.196L29.0497 153.508L29.1374 153.618L29.2695 153.666L29.4404 153.196ZM59.9914 159.993L60.4126 159.724L60.2755 159.51L60.0217 159.494L59.9914 159.993ZM79.5439 171.138L79.7539 170.684L79.5439 171.138ZM61.8273 160.079L61.8431 159.579L60.4232 159.534L61.502 160.458L61.8273 160.079ZM78.436 154.104L78.7431 153.709L78.1675 153.261L77.9572 153.96L78.436 154.104ZM97.2039 159.02L97.3458 159.499H97.3459L97.2039 159.02ZM97.7468 157.089L97.8195 156.594L97.7468 157.089ZM78.6974 151.985L78.1977 152L78.2076 152.319L78.5014 152.444L78.6974 151.985ZM76.5 145.5L76.9336 145.251L76.8846 145.166L76.807 145.105L76.5 145.5ZM73.5833 143.319L73.2866 143.721L73.5833 143.319ZM28 69.9998L28.4991 70.0299L28.5 70.0149V69.9998H28ZM31.9697 74.7016L32.4089 74.4626L31.9697 74.7016ZM112 133.5V133H111.99L111.98 133L112 133.5ZM109.539 132.455L109.68 131.976L109.539 132.455ZM35.5 69.9998L35.9853 69.8796L35.5 69.9998ZM40.8068 74.4697L40.4247 74.7922L40.8068 74.4697ZM99.2909 117.177L99.1991 117.668L99.5207 116.733L99.2909 117.177ZM96.9541 115.902L97.1473 115.441L96.7034 116.335L96.9541 115.902ZM104.567 117.871L104.461 118.359L104.495 118.367L104.53 118.369L104.567 117.871ZM107.5 118L107.494 118.5L107.572 118.501L107.647 118.478L107.5 118ZM117.927 92.7577L117.984 92.261L117.455 92.1997L117.427 92.7317L117.927 92.7577ZM132.692 92.0942L132.558 91.6124L132.692 92.0942ZM117.464 89.8166L117.461 90.3166L117.462 90.3166L117.464 89.8166ZM117.459 89.8166L117.462 89.3166H117.462L117.459 89.8166ZM117.455 89.8165L117.458 89.3165H117.458L117.455 89.8165ZM117.447 89.8165L117.449 89.3165H117.449L117.447 89.8165ZM117.442 89.8165L117.44 90.3165H117.44L117.442 89.8165ZM117.434 89.8164L117.437 89.3164H117.437L117.434 89.8164ZM117.425 89.8164L117.428 89.3164H117.428L117.425 89.8164ZM117.421 89.8163L117.424 89.3164L117.423 89.3163L117.421 89.8163ZM113.563 89.802L113.518 90.3L113.539 90.3018L113.56 90.302L113.563 89.802ZM46 41.9998L45.5431 42.2029L45.5661 42.2546L45.6 42.2998L46 41.9998ZM58.5862 50.006L58.2778 50.3996L58.2929 50.4114L58.3089 50.422L58.5862 50.006ZM58.5863 50.006L58.9064 49.6219L58.8858 49.6048L58.8636 49.59L58.5863 50.006ZM58.5863 50.0061L58.2663 50.3902L58.272 50.395L58.278 50.3997L58.5863 50.0061ZM101 64.4998H100.5V64.5493L100.51 64.5979L101 64.4998ZM94.872 61.2498L94.7715 61.7396L94.872 61.2498ZM54 41.9998L53.658 42.3646L53.6785 42.3838L53.701 42.4006L54 41.9998ZM62.9965 44.1869L63.2201 43.7396L63.2029 43.7311L63.1851 43.7238L62.9965 44.1869ZM62.9965 44.1869L62.7729 44.6341L62.8047 44.65L62.8384 44.6612L62.9965 44.1869ZM62.9966 44.1869L63.1852 43.7239L63.1701 43.7177L63.1547 43.7126L62.9966 44.1869ZM107.908 55.8274L108.148 55.3887L107.998 55.3063L107.828 55.3339L107.908 55.8274ZM114.68 56.1485L114.721 56.6468L114.68 56.1485ZM132.044 50.2784L131.888 49.8037L132.044 50.2784ZM113.771 51.9821L113.313 51.7817L113.036 52.4139L113.723 52.4798L113.771 51.9821ZM113.965 38.6635L114.006 38.1652L113.251 38.103L113.49 38.8214L113.965 38.6635ZM127.5 35.9999L127.422 35.506L127.5 35.9999ZM111.531 33.6959L111.116 33.9737L111.2 34.1003L111.341 34.1583L111.531 33.6959ZM64.1782 21.9952L64.1148 21.4993L64.0518 21.5073L63.9928 21.5309L64.1782 21.9952ZM118.691 181.778L118.828 182.259L118.997 182.211L119.099 182.067L118.691 181.778ZM111.972 183.395L111.778 183.857L111.919 183.916L112.068 183.886L111.972 183.395ZM52.4972 67.7216L52.864 68.0614L52.4972 67.7216ZM42 67.7216L42.3398 67.3548L42.3396 67.3546L42 67.7216ZM32.5 48.5002L32.8668 48.84L32.5 48.5002ZM41.6073 67.3583L41.9469 66.9912L41.9468 66.9912L41.6073 67.3583ZM38.0366 143.858L38.3763 143.491L38.3761 143.491L38.0366 143.858ZM47.1267 142.555L46.7598 142.215V142.215L47.1267 142.555ZM37.7416 143.585L38.0811 143.218L38.081 143.218L37.7416 143.585ZM32.1962 128.027L31.8294 127.687L32.1962 128.027ZM44.4754 128.203L44.1356 128.57L44.4754 128.203ZM96.4473 41.159L96.9163 41.3323L96.4473 41.159ZM90.6322 44.3218L90.8056 43.8528L90.8053 43.8527L90.6322 44.3218ZM81.8517 35.3823L81.3828 35.2089L81.8517 35.3823ZM90.3482 44.2171L90.5212 43.748L90.5211 43.7479L90.3482 44.2171ZM105.888 101.345L105.723 101.817L105.723 101.817L105.888 101.345ZM109.126 107.448L108.654 107.283L109.126 107.448ZM105.555 101.229L105.39 101.701L105.39 101.701L105.555 101.229ZM91.7817 101.752L92.2538 101.917L91.7817 101.752ZM144.095 106.814L143.765 106.437V106.437L144.095 106.814ZM144.212 101.112L143.835 101.442L144.212 101.112ZM137.85 106.683L138.226 106.354L137.85 106.683ZM148 64.9995L148.24 65.4385L148 64.9995ZM121.764 69.5672L121.777 69.0674H121.776L121.764 69.5672ZM132.5 76.4998L132.365 76.0183L132.5 76.4998ZM118 69.4996V68.9996H117.618L117.518 69.3689L118 69.4996ZM121.763 69.5672L121.75 70.067H121.75L121.763 69.5672ZM147 140L147.231 140.443L147 140ZM117.5 143.5V143L117.431 143.995L117.5 143.5ZM131.632 140.947L131.529 140.458L131.52 140.46L131.632 140.947ZM131.632 140.947L131.519 140.46L131.496 140.466L131.474 140.473L131.632 140.947ZM131.631 140.947L131.734 141.437L131.762 141.431L131.79 141.422L131.631 140.947ZM114 161.647V161.147L113.939 162.144L114 161.647ZM136.279 159.321L136.488 159.775H136.488L136.279 159.321ZM124.673 159.951L124.764 160.442L124.673 159.951ZM51.5 114.5L51.8508 114.144L51.8385 114.132L51.8254 114.12L51.5 114.5ZM96 147.5L95.9317 147.005L96 147.5ZM51.5 118.5L51.0904 118.787L51.1013 118.802L51.1135 118.817L51.5 118.5ZM9 210.5L8.78222 210.05L8.03091 210.413L8.70592 210.904L9 210.5ZM10.2015 211.253L10.0114 211.716L10.439 210.813L10.2015 211.253ZM11 192.5L10.7072 192.095L10.1666 192.485L10.693 192.895L11 192.5ZM11.1032 192.426L11.3923 192.834L10.9585 191.947L11.1032 192.426ZM189.711 185.189L190.108 184.885L189.916 184.633L189.606 184.7L189.711 185.189ZM185.383 199.402L185.023 199.749L185.225 199.958L185.507 199.886L185.383 199.402ZM192.513 3.54215C192.179 3.51423 191.841 3.5 191.5 3.5V4.5C191.813 4.5 192.123 4.51307 192.429 4.53868L192.513 3.54215ZM191.5 3.5C184.873 3.5 179.5 8.87258 179.5 15.5H180.5C180.5 9.42487 185.425 4.5 191.5 4.5V3.5ZM179.5 15.5C179.5 19.73 181.689 23.4484 184.994 25.5847L185.537 24.7449C182.505 22.7851 180.5 19.3765 180.5 15.5H179.5ZM185.658 24.8554C185.484 24.6348 185.325 24.4135 185.18 24.195L184.346 24.7467C184.506 24.9884 184.682 25.232 184.872 25.4742L185.658 24.8554ZM184.899 24.9521C188.365 23.9764 190.832 22.5185 192.516 20.7656C194.202 19.0099 195.08 16.983 195.406 14.914C196.054 10.7998 194.524 6.52995 192.901 3.78598L192.041 4.29486C193.598 6.92872 195.017 10.9592 194.418 14.7584C194.121 16.646 193.326 18.4791 191.795 20.0728C190.261 21.6694 187.965 23.0504 184.628 23.9895L184.899 24.9521ZM191.5 30.5C199.784 30.5 206.5 23.7843 206.5 15.5H205.5C205.5 23.232 199.232 29.5 191.5 29.5V30.5ZM176.5 15.5C176.5 23.7843 183.216 30.5 191.5 30.5V29.5C183.768 29.5 177.5 23.232 177.5 15.5H176.5ZM191.5 0.5C183.216 0.5 176.5 7.21573 176.5 15.5H177.5C177.5 7.76801 183.768 1.5 191.5 1.5V0.5ZM206.5 15.5C206.5 7.21573 199.784 0.5 191.5 0.5V1.5C199.232 1.5 205.5 7.76801 205.5 15.5H206.5ZM29.8311 152.884C18.3584 138.521 11.5 120.312 11.5 100.5H10.5C10.5 120.547 17.4407 138.975 29.0497 153.508L29.8311 152.884ZM60.0217 159.494C50.871 158.94 39.6568 156.379 29.6112 152.727L29.2695 153.666C39.3844 157.344 50.6943 159.931 59.9612 160.493L60.0217 159.494ZM78.4752 172.335C69.1578 172.335 63.8684 165.124 60.4126 159.724L59.5703 160.263C63.0139 165.644 68.5674 173.335 78.4752 173.335V172.335ZM79.3338 171.591C80.1525 171.97 80.7691 172.256 81.1732 172.476C81.379 172.588 81.4986 172.667 81.5572 172.716C81.5878 172.742 81.5738 172.737 81.5529 172.701C81.5277 172.657 81.4783 172.537 81.5294 172.388C81.575 172.255 81.6667 172.202 81.6764 172.196C81.6903 172.188 81.6813 172.196 81.6274 172.209C81.5217 172.236 81.3408 172.262 81.0601 172.282C80.5051 172.323 79.6611 172.335 78.4752 172.335V173.335C79.6568 173.335 80.5359 173.323 81.1323 173.28C81.4273 173.258 81.6793 173.228 81.8726 173.179C81.9683 173.155 82.0753 173.12 82.173 173.064C82.2664 173.011 82.4096 172.904 82.4754 172.712C82.5469 172.504 82.4865 172.319 82.4204 172.203C82.3585 172.095 82.2736 172.013 82.2043 171.954C82.063 171.834 81.8673 171.715 81.6512 171.598C81.2115 171.358 80.5583 171.056 79.7539 170.684L79.3338 171.591ZM61.502 160.458C68.8104 166.72 75.7795 169.946 79.3338 171.591L79.7539 170.684C76.217 169.046 69.352 165.867 62.1526 159.699L61.502 160.458ZM77.9572 153.96C77.339 156.012 75.5395 157.49 72.724 158.424C69.9099 159.358 66.1663 159.715 61.8431 159.579L61.8115 160.578C66.1899 160.717 70.0662 160.359 73.0389 159.373C76.0102 158.387 78.1642 156.74 78.9147 154.248L77.9572 153.96ZM97.062 158.541C89.6088 160.747 83.4158 157.347 78.7431 153.709L78.1288 154.499C82.8725 158.191 89.413 161.848 97.3458 159.499L97.062 158.541ZM97.6742 157.584C98.5668 157.715 99.2392 157.814 99.689 157.91C99.9182 157.959 100.055 158 100.125 158.031C100.162 158.048 100.147 158.047 100.117 158.018C100.08 157.983 99.9989 157.882 100.006 157.724C100.012 157.584 100.084 157.507 100.092 157.499C100.103 157.487 100.097 157.497 100.049 157.525C99.9552 157.581 99.789 157.657 99.5256 157.757C99.0049 157.953 98.1991 158.204 97.062 158.541L97.3459 159.499C98.4788 159.164 99.3183 158.903 99.878 158.692C100.155 158.588 100.388 158.487 100.559 158.385C100.644 158.335 100.737 158.271 100.815 158.19C100.889 158.112 100.996 157.969 101.005 157.767C101.014 157.547 100.904 157.386 100.808 157.295C100.718 157.209 100.613 157.153 100.53 157.117C100.36 157.042 100.139 156.984 99.898 156.932C99.4085 156.827 98.6964 156.723 97.8195 156.594L97.6742 157.584ZM78.5014 152.444C86.8239 155.991 93.9599 157.038 97.6742 157.584L97.8195 156.594C94.1227 156.052 87.0924 155.019 78.8935 151.525L78.5014 152.444ZM76.0664 145.749C77.4904 148.229 78.1449 150.298 78.1977 152L79.1972 151.969C79.1375 150.045 78.4042 147.812 76.9336 145.251L76.0664 145.749ZM73.2866 143.721C74.4626 144.588 75.4441 145.312 76.193 145.894L76.807 145.105C76.0456 144.513 75.0521 143.78 73.8801 142.916L73.2866 143.721ZM27.5009 69.9697C26.3456 89.1486 34.6131 105.235 44.7381 117.687C54.8619 130.137 66.877 138.995 73.2866 143.721L73.8801 142.916C67.4716 138.191 55.5498 129.398 45.514 117.056C35.4793 104.716 27.3642 88.8689 28.4991 70.0299L27.5009 69.9697ZM32.4089 74.4626C31.0609 71.9853 30.0462 70.1174 29.3662 69.2055C29.1956 68.9767 29.0226 68.7753 28.8496 68.6383C28.7054 68.524 28.3911 68.3221 28.0346 68.4808C27.8677 68.5551 27.7629 68.6828 27.699 68.7947C27.6359 68.9055 27.5972 69.0274 27.5713 69.1424C27.5196 69.3719 27.5 69.6631 27.5 69.9998H28.5C28.5 69.6881 28.5195 69.4837 28.5469 69.362C28.5605 69.3014 28.5713 69.2838 28.5677 69.29C28.5635 69.2974 28.5283 69.3556 28.4413 69.3943C28.2446 69.4819 28.1308 69.3446 28.2288 69.4222C28.298 69.477 28.4088 69.5945 28.5646 69.8033C29.1898 70.6417 30.1599 72.4216 31.5305 74.9406L32.4089 74.4626ZM111.98 133C88.6613 133.948 70.9836 123.384 58.0164 110.534C45.0423 97.6765 36.814 82.5586 32.4089 74.4626L31.5305 74.9406C35.9356 83.0365 44.2235 98.2729 57.3125 111.244C70.4085 124.222 88.3409 134.962 112.02 133.999L111.98 133ZM109.397 132.935C110.668 133.31 111.525 133.564 111.936 133.722C112.04 133.763 112.088 133.787 112.102 133.795C112.113 133.801 112.077 133.783 112.036 133.736C112.001 133.695 111.858 133.505 111.96 133.253C112.04 133.057 112.207 133.001 112.211 133C112.243 132.988 112.258 132.987 112.238 132.99C112.203 132.995 112.129 133 112 133V134C112.141 134 112.27 133.995 112.375 133.981C112.425 133.974 112.495 133.961 112.566 133.934C112.608 133.918 112.799 133.845 112.887 133.63C112.997 133.357 112.847 133.145 112.79 133.079C112.727 133.006 112.654 132.96 112.614 132.936C112.524 132.882 112.41 132.834 112.297 132.79C111.837 132.612 110.924 132.343 109.68 131.976L109.397 132.935ZM35.0147 70.12C40.4808 92.195 55.941 106.967 71.5724 116.676C87.204 126.385 103.058 131.064 109.397 132.935L109.68 131.976C103.351 130.108 87.6092 125.46 72.1 115.827C56.5906 106.193 41.3655 91.607 35.9853 69.8796L35.0147 70.12ZM41.1889 74.1472C39.2017 71.7927 37.6904 70.0005 36.7562 69.1278C36.5218 68.9088 36.3014 68.7262 36.1036 68.6064C36.005 68.5467 35.8906 68.4894 35.7671 68.4578C35.6439 68.4263 35.4678 68.4098 35.2883 68.4927C35.0996 68.5799 34.9949 68.7359 34.9426 68.8747C34.8934 69.0052 34.8811 69.1414 34.8811 69.2588C34.8811 69.4947 34.9323 69.7875 35.0147 70.12L35.9853 69.8796C35.9084 69.569 35.8811 69.371 35.8811 69.259C35.8811 69.2025 35.8885 69.2004 35.8784 69.2272C35.8652 69.2623 35.8189 69.3491 35.7078 69.4005C35.6059 69.4475 35.5266 69.4285 35.5191 69.4266C35.5112 69.4245 35.5313 69.429 35.5858 69.462C35.6943 69.5276 35.8547 69.6541 36.0735 69.8585C36.9522 70.6793 38.4128 72.4084 40.4247 74.7922L41.1889 74.1472ZM99.3827 116.685C86.1875 114.221 74.0911 106.504 64.0518 97.9228C54.0174 89.3457 46.0791 79.9413 41.1889 74.1472L40.4247 74.7922C45.3144 80.5856 53.299 90.0472 63.4021 98.683C73.5003 107.315 85.756 115.158 99.1991 117.668L99.3827 116.685ZM96.7034 116.335C97.3787 116.726 98.171 117.16 99.0611 117.621L99.5207 116.733C98.6429 116.279 97.8646 115.852 97.2047 115.47L96.7034 116.335ZM104.674 117.382C101.1 116.605 98.3041 115.926 97.1473 115.441L96.7609 116.363C98.0221 116.892 100.925 117.59 104.461 118.359L104.674 117.382ZM107.506 117.5C106.534 117.488 105.567 117.445 104.605 117.372L104.53 118.369C105.512 118.444 106.501 118.488 107.494 118.5L107.506 117.5ZM117.427 92.7317C117.144 98.1609 116.043 103.958 114.278 108.614C113.395 110.942 112.353 112.967 111.178 114.515C110 116.066 108.714 117.103 107.353 117.522L107.647 118.478C109.281 117.975 110.725 116.764 111.974 115.12C113.226 113.471 114.309 111.353 115.213 108.969C117.021 104.2 118.139 98.2973 118.426 92.7837L117.427 92.7317ZM132.558 91.6124C128.146 92.8376 122.929 92.8343 117.984 92.261L117.869 93.2544C122.874 93.8346 128.236 93.8503 132.826 92.5759L132.558 91.6124ZM117.462 90.3166C123.054 90.3322 128.828 90.3487 132.21 90.6354C133.055 90.707 133.733 90.7942 134.214 90.898C134.455 90.9502 134.629 91.0028 134.744 91.0516C134.88 91.1098 134.852 91.1289 134.812 91.0593C134.782 91.0075 134.762 90.9332 134.775 90.8536C134.781 90.8186 134.791 90.792 134.799 90.7747C134.808 90.7579 134.815 90.7494 134.815 90.7487C134.816 90.748 134.812 90.7527 134.801 90.7624C134.791 90.772 134.775 90.7849 134.752 90.8008C134.707 90.833 134.643 90.8723 134.554 90.918C134.191 91.1058 133.549 91.3374 132.558 91.6124L132.826 92.5759C133.828 92.2978 134.553 92.0442 135.013 91.8064C135.236 91.6914 135.449 91.5544 135.59 91.3811C135.665 91.2896 135.738 91.1656 135.763 91.0104C135.789 90.8456 135.753 90.6894 135.677 90.5589C135.546 90.3319 135.311 90.2064 135.136 90.1316C134.938 90.0475 134.695 89.9789 134.425 89.9205C133.881 89.8032 133.154 89.7118 132.295 89.639C128.861 89.3479 123.036 89.3321 117.465 89.3166L117.462 90.3166ZM117.457 90.3165L117.461 90.3166L117.466 89.3166L117.462 89.3166L117.457 90.3165ZM117.453 90.3165L117.457 90.3165L117.462 89.3166L117.458 89.3165L117.453 90.3165ZM117.448 90.3165L117.453 90.3165L117.458 89.3165L117.454 89.3165L117.448 90.3165ZM117.444 90.3165L117.448 90.3165L117.454 89.3165L117.449 89.3165L117.444 90.3165ZM117.44 90.3165L117.444 90.3165L117.449 89.3165L117.445 89.3165L117.44 90.3165ZM117.436 90.3164L117.44 90.3165L117.445 89.3165L117.441 89.3164L117.436 90.3164ZM117.431 90.3164L117.436 90.3164L117.441 89.3164L117.437 89.3164L117.431 90.3164ZM117.427 90.3164L117.431 90.3164L117.437 89.3164L117.432 89.3164L117.427 90.3164ZM117.423 90.3164L117.427 90.3164L117.432 89.3164L117.428 89.3164L117.423 90.3164ZM117.418 90.3163L117.423 90.3164L117.428 89.3164L117.424 89.3164L117.418 90.3163ZM113.56 90.302C114.812 90.3092 116.11 90.3127 117.42 90.3163L117.423 89.3163C116.113 89.3127 114.816 89.3092 113.566 89.302L113.56 90.302ZM45.6 42.2998C75.2986 81.898 100.615 89.1444 113.518 90.3L113.608 89.304C101.024 88.1771 75.9525 81.1032 46.4 41.6998L45.6 42.2998ZM58.8946 49.6124C54.8197 46.4197 51.3406 43.6933 49.0391 42.1237C48.4623 41.7304 47.952 41.4045 47.5199 41.1603C47.0976 40.9216 46.7151 40.7404 46.403 40.6645C46.2501 40.6274 46.0595 40.6012 45.8708 40.6484C45.648 40.7042 45.4593 40.8564 45.373 41.0928C45.3009 41.2905 45.3202 41.4944 45.354 41.6539C45.3898 41.8232 45.4564 42.0079 45.5431 42.2029L46.4569 41.7968C46.3854 41.6359 46.3482 41.5219 46.3323 41.4469C46.3144 41.362 46.3342 41.376 46.3124 41.4356C46.2766 41.5339 46.1882 41.5999 46.1135 41.6185C46.0729 41.6287 46.0781 41.6147 46.1667 41.6362C46.3375 41.6778 46.6201 41.8004 47.0279 42.0308C47.4258 42.2557 47.9103 42.5644 48.4756 42.9499C50.7427 44.496 54.1893 47.1961 58.2778 50.3996L58.8946 49.6124ZM58.8636 49.59L58.8636 49.59L58.3089 50.422L58.3089 50.4221L58.8636 49.59ZM58.9064 49.622L58.9064 49.6219L58.2662 50.3901L58.2663 50.3902L58.9064 49.622ZM100.51 64.5979C101.059 67.3449 101.073 69.3272 100.695 70.6904C100.327 72.0205 99.593 72.7529 98.577 73.0773C97.5186 73.4152 96.0872 73.3313 94.319 72.8422C92.5613 72.3561 90.5304 71.4867 88.3082 70.327C79.4052 65.6804 67.7316 56.5364 58.8947 49.6125L58.278 50.3997C67.0868 57.3016 78.8422 66.5146 87.8455 71.2135C90.0999 72.3901 92.2004 73.2938 94.0524 73.8061C95.8938 74.3153 97.5503 74.4549 98.8812 74.0299C100.255 73.5914 101.211 72.5744 101.659 70.9571C102.098 69.3729 102.052 67.2099 101.49 64.4018L100.51 64.5979ZM94.7715 61.7396C96.8441 62.1648 98.3087 62.4684 99.2661 62.8986C99.7347 63.1091 100.036 63.3312 100.221 63.5735C100.399 63.8057 100.5 64.094 100.5 64.4998H101.5C101.5 63.9093 101.347 63.3981 101.015 62.9654C100.691 62.5427 100.228 62.2343 99.6759 61.9864C98.5926 61.4997 96.9931 61.1746 94.9725 60.76L94.7715 61.7396ZM53.701 42.4006C73.8655 57.444 87.5223 60.2523 94.7715 61.7396L94.9725 60.76C87.8133 59.2912 74.3086 56.5269 54.299 41.5991L53.701 42.4006ZM63.1851 43.7238C59.4663 42.2088 56.4895 40.9953 54.7948 40.493C54.3706 40.3673 54.0018 40.2783 53.7104 40.2444C53.566 40.2276 53.4157 40.221 53.2759 40.2412C53.1462 40.2599 52.9435 40.3133 52.7954 40.4907C52.6285 40.6909 52.6295 40.9249 52.6691 41.0881C52.7062 41.2412 52.7858 41.382 52.8671 41.5009C53.0331 41.7434 53.3032 42.032 53.658 42.3646L54.342 41.6351C53.9997 41.3142 53.7948 41.0859 53.6924 40.9362C53.6395 40.8589 53.6366 40.8347 53.6409 40.8525C53.6477 40.8803 53.6656 41.0086 53.5634 41.1312C53.48 41.2311 53.3898 41.2351 53.4185 41.231C53.437 41.2283 53.4909 41.2256 53.5946 41.2377C53.7995 41.2615 54.1026 41.3309 54.5106 41.4518C56.1447 41.9361 59.0603 43.1232 62.8078 44.6499L63.1851 43.7238ZM63.2201 43.7397L63.2201 43.7396L62.7729 44.6341L62.7729 44.6341L63.2201 43.7397ZM63.1547 43.7126L63.1546 43.7125L62.8384 44.6612L62.8385 44.6612L63.1547 43.7126ZM107.828 55.3339C102.119 56.2649 94.0732 54.6458 85.8468 52.1263C77.6434 49.6138 69.3528 46.2365 63.1852 43.7239L62.8079 44.6499C68.97 47.1604 77.301 50.5548 85.554 53.0824C93.7841 55.6031 102.029 57.2927 107.989 56.3209L107.828 55.3339ZM114.639 55.6502C112.718 55.809 111.273 55.8487 110.207 55.7912C109.126 55.7329 108.492 55.5767 108.148 55.3887L107.669 56.2662C108.217 56.5656 109.037 56.7295 110.153 56.7897C111.284 56.8507 112.779 56.8073 114.721 56.6468L114.639 55.6502ZM132.201 50.7532C133.573 50.2998 134.508 50.0423 135.077 49.9336C135.374 49.877 135.523 49.8706 135.574 49.8758C135.614 49.8799 135.517 49.8821 135.417 49.7882C135.353 49.7291 135.301 49.6428 135.285 49.5385C135.27 49.4429 135.291 49.3689 135.305 49.3318C135.329 49.2693 135.357 49.2534 135.321 49.2892C135.294 49.316 135.246 49.3568 135.171 49.4116C135.023 49.5205 134.802 49.6587 134.51 49.822C133.928 50.1474 133.099 50.5511 132.077 50.9948C127.982 52.7735 120.944 55.1294 114.639 55.6502L114.721 56.6468C121.175 56.1137 128.325 53.7148 132.476 51.9121C133.515 51.4605 134.377 51.0421 134.998 50.695C135.307 50.522 135.567 50.3613 135.762 50.2183C135.859 50.147 135.95 50.0735 136.025 49.999C136.091 49.9334 136.185 49.8291 136.238 49.6923C136.267 49.6179 136.292 49.5103 136.273 49.3847C136.252 49.2505 136.186 49.1379 136.098 49.0563C135.949 48.9175 135.764 48.89 135.676 48.881C135.469 48.8598 135.195 48.893 134.89 48.9514C134.255 49.0727 133.269 49.3471 131.888 49.8037L132.201 50.7532ZM113.723 52.4798C118.599 52.9471 125.696 52.9029 132.201 50.7532L131.888 49.8037C125.564 51.8935 118.62 51.9446 113.819 51.4843L113.723 52.4798ZM113.49 38.8214C115.172 43.8726 114.606 48.8247 113.313 51.7817L114.229 52.1824C115.624 48.9936 116.197 43.7859 114.439 38.5056L113.49 38.8214ZM127.578 36.4938C128.704 36.316 129.473 36.2414 129.946 36.2381C130.189 36.2365 130.314 36.2546 130.36 36.2677C130.386 36.2752 130.34 36.268 130.281 36.213C130.198 36.1356 130.135 36.0004 130.16 35.8487C130.17 35.7897 130.191 35.7482 130.204 35.7264C130.217 35.7044 130.227 35.6932 130.228 35.6924C130.228 35.6923 130.212 35.7087 130.166 35.7398C130.075 35.8014 129.924 35.8829 129.705 35.9801C129.273 36.1724 128.639 36.3984 127.842 36.6327C124.648 37.5718 119.062 38.5819 114.006 38.1652L113.924 39.1618C119.138 39.5915 124.852 38.5542 128.124 37.5921C128.943 37.3511 129.624 37.1109 130.112 36.8937C130.354 36.7861 130.565 36.677 130.726 36.5681C130.806 36.514 130.888 36.4501 130.958 36.3755C131.021 36.3085 131.118 36.1864 131.146 36.0139C131.182 35.8 131.099 35.6091 130.965 35.4833C130.854 35.38 130.724 35.3316 130.634 35.3059C130.446 35.2526 130.205 35.2363 129.939 35.2382C129.39 35.2419 128.562 35.326 127.422 35.506L127.578 36.4938ZM111.341 34.1583C115.201 35.7455 121.468 37.4585 127.578 36.4938L127.422 35.506C121.568 36.4304 115.498 34.7866 111.722 33.2334L111.341 34.1583ZM64.2416 22.4912C92.4841 18.8822 105.651 25.7973 111.116 33.9737L111.947 33.418C106.17 24.7749 92.5106 17.8707 64.1148 21.4993L64.2416 22.4912ZM11.5 100.5C11.5 65.1097 33.3861 34.83 64.3636 22.4596L63.9928 21.5309C32.6482 34.0479 10.5 64.6868 10.5 100.5H11.5ZM118.554 181.297C116.363 181.921 114.135 182.458 111.875 182.905L112.068 183.886C114.356 183.434 116.61 182.89 118.828 182.259L118.554 181.297ZM118.5 181C118.5 181.083 118.454 181.248 118.283 181.489L119.099 182.067C119.321 181.753 119.5 181.382 119.5 181H118.5ZM112.636 179.5C113.588 179.5 115.134 179.715 116.441 180.068C117.095 180.245 117.659 180.448 118.049 180.661C118.245 180.767 118.373 180.863 118.446 180.94C118.519 181.018 118.5 181.036 118.5 181H119.5C119.5 180.688 119.345 180.436 119.172 180.253C118.999 180.07 118.771 179.915 118.527 179.782C118.038 179.516 117.387 179.288 116.702 179.103C115.329 178.732 113.693 178.5 112.636 178.5V179.5ZM109.5 181C109.5 180.714 109.717 180.348 110.306 180.024C110.877 179.71 111.7 179.5 112.636 179.5V178.5C111.564 178.5 110.569 178.738 109.824 179.148C109.097 179.547 108.5 180.181 108.5 181H109.5ZM112.165 182.934C111.423 182.623 110.72 182.222 110.212 181.826C109.958 181.627 109.767 181.441 109.644 181.279C109.515 181.109 109.5 181.018 109.5 181H108.5C108.5 181.337 108.663 181.641 108.848 181.885C109.041 182.138 109.302 182.384 109.597 182.614C110.188 183.075 110.971 183.518 111.778 183.857L112.165 182.934ZM95.5 192.5C146.31 192.5 187.5 151.31 187.5 100.5H186.5C186.5 150.758 145.758 191.5 95.5 191.5V192.5ZM3.5 100.5C3.5 151.31 44.6898 192.5 95.5 192.5V191.5C45.2421 191.5 4.5 150.758 4.5 100.5H3.5ZM95.5 8.5C44.6898 8.5 3.5 49.6898 3.5 100.5H4.5C4.5 50.2421 45.2421 9.5 95.5 9.5V8.5ZM187.5 100.5C187.5 49.6898 146.31 8.5 95.5 8.5V9.5C145.758 9.5 186.5 50.2421 186.5 100.5H187.5ZM52.1303 67.3818C50.8209 68.7956 49.5676 69.8437 48.0937 70.0492C46.648 70.2507 44.8255 69.657 42.3398 67.3548L41.6603 68.0884C44.2394 70.4772 46.352 71.3017 48.2318 71.0396C50.0835 70.7814 51.5464 69.4839 52.864 68.0614L52.1303 67.3818ZM46.6602 51.1004C49.1172 53.3761 51.1082 56.8343 52.1573 60.077C52.6811 61.6962 52.9621 63.2374 52.9588 64.5291C52.9554 65.8344 52.6631 66.8066 52.1303 67.3818L52.864 68.0614C53.6447 67.2184 53.9551 65.9445 53.9587 64.5316C53.9624 63.1052 53.6545 61.4562 53.1088 59.7692C52.0187 56.3998 49.9476 52.7822 47.3398 50.3668L46.6602 51.1004ZM32.8668 48.84C34.0295 47.5847 36.1982 46.9746 38.775 47.2904C41.3322 47.6039 44.2034 48.8248 46.6602 51.1004L47.3398 50.3668C44.7318 47.9512 41.6665 46.6374 38.8966 46.2979C36.1464 45.9607 33.5975 46.5794 32.1332 48.1605L32.8668 48.84ZM41.9468 66.9912C39.3586 64.5976 35.8274 61.3286 33.5833 57.971C32.4617 56.2929 31.6908 54.6343 31.4977 53.0857C31.3076 51.562 31.673 50.129 32.8668 48.84L32.1332 48.1605C30.7239 49.682 30.2816 51.4154 30.5053 53.2094C30.726 54.9786 31.5904 56.7889 32.7519 58.5267C35.0738 62.0006 38.6994 65.3501 41.2679 67.7253L41.9468 66.9912ZM42.3396 67.3546L41.9469 66.9912L41.2678 67.7253L41.6605 68.0886L42.3396 67.3546ZM37.6968 144.225C39.6824 146.064 41.4713 146.546 43.1577 146.073C44.7764 145.619 46.1824 144.31 47.4935 142.895L46.7598 142.215C45.4439 143.636 44.2067 144.74 42.8879 145.11C41.6369 145.461 40.1943 145.175 38.3763 143.491L37.6968 144.225ZM37.4021 143.953L37.6971 144.225L38.3761 143.491L38.0811 143.218L37.4021 143.953ZM31.8294 127.687C30.4522 129.174 29.851 130.74 29.8217 132.316C29.7927 133.879 30.3262 135.402 31.1291 136.818C32.7274 139.637 35.478 142.174 37.4022 143.953L38.081 143.218C36.1319 141.417 33.5067 138.984 31.999 136.325C31.249 135.002 30.797 133.658 30.8216 132.335C30.8458 131.026 31.3372 129.69 32.5631 128.366L31.8294 127.687ZM44.8151 127.836C42.8083 125.977 40.2658 125.186 37.8854 125.23C35.5136 125.274 33.2541 126.149 31.8294 127.687L32.5631 128.366C33.7654 127.068 35.7437 126.27 37.9038 126.23C40.0553 126.19 42.3389 126.906 44.1356 128.57L44.8151 127.836ZM47.4935 142.895C48.2433 142.085 48.6704 140.944 48.8505 139.682C49.0315 138.414 48.9697 136.984 48.7042 135.546C48.1753 132.682 46.8186 129.692 44.8151 127.836L44.1356 128.57C45.9357 130.237 47.2182 133.005 47.7208 135.727C47.971 137.082 48.0231 138.402 47.8606 139.541C47.6972 140.685 47.3235 141.607 46.7598 142.215L47.4935 142.895ZM95.9783 40.9856C95.5096 42.2539 95.0131 43.2488 94.2674 43.7947C93.5715 44.3042 92.545 44.4957 90.8056 43.8528L90.4589 44.7908C92.3838 45.5022 93.7967 45.3788 94.8582 44.6016C95.8699 43.8608 96.4488 42.5971 96.9163 41.3323L95.9783 40.9856ZM90.1196 32.8536C91.8317 33.4863 93.5294 34.9677 94.6859 36.6168C95.2614 37.4373 95.6883 38.2794 95.9164 39.0514C96.1464 39.8301 96.1611 40.4911 95.9783 40.9856L96.9163 41.3323C97.2016 40.5603 97.139 39.6605 96.8754 38.7681C96.6099 37.8691 96.1268 36.9298 95.5047 36.0426C94.266 34.2764 92.4186 32.6371 90.4663 31.9156L90.1196 32.8536ZM82.3207 35.5556C82.7272 34.4558 83.7928 33.4555 85.2319 32.8912C86.6612 32.3306 88.4106 32.2219 90.1196 32.8536L90.4663 31.9156C88.5111 31.1929 86.508 31.3166 84.8668 31.9602C83.2354 32.6 81.9125 33.7757 81.3828 35.2089L82.3207 35.5556ZM90.5211 43.7479C88.6414 43.0552 86.1259 42.1242 84.3046 40.766C83.3985 40.0902 82.701 39.3346 82.3303 38.4869C81.9666 37.6553 81.8993 36.6958 82.3207 35.5556L81.3828 35.2089C80.8765 36.5787 80.9413 37.8068 81.4141 38.8876C81.8797 39.9523 82.7231 40.834 83.7068 41.5676C85.6653 43.0282 88.3256 44.0046 90.1753 44.6862L90.5211 43.7479ZM90.8053 43.8527L90.5212 43.748L90.1751 44.6862L90.4592 44.7909L90.8053 43.8527ZM105.723 101.817C107.808 102.545 108.657 103.396 108.96 104.228C109.273 105.087 109.071 106.088 108.654 107.283L109.598 107.613C110.02 106.406 110.343 105.103 109.9 103.886C109.447 102.642 108.258 101.643 106.052 100.873L105.723 101.817ZM105.39 101.701L105.723 101.817L106.053 100.873L105.72 100.757L105.39 101.701ZM92.2538 101.917C92.617 100.876 93.2982 100.257 94.1992 99.9141C95.1236 99.5622 96.2954 99.4967 97.6048 99.6298C100.225 99.8963 103.196 100.933 105.39 101.701L105.72 100.757C103.551 99.9979 100.466 98.9156 97.706 98.635C96.3251 98.4946 94.9755 98.5486 93.8434 98.9796C92.6878 99.4195 91.7773 100.247 91.3096 101.587L92.2538 101.917ZM97.7184 109.021C95.6706 108.306 94.1046 107.035 93.1543 105.675C92.1928 104.299 91.9077 102.908 92.2538 101.917L91.3096 101.587C90.8172 102.998 91.273 104.729 92.3346 106.248C93.4075 107.784 95.1467 109.182 97.3888 109.965L97.7184 109.021ZM108.654 107.283C108.505 107.711 108.074 108.154 107.332 108.55C106.602 108.94 105.638 109.248 104.547 109.44C102.361 109.827 99.7663 109.736 97.7184 109.021L97.3888 109.965C99.6309 110.748 102.404 110.835 104.721 110.425C105.882 110.22 106.955 109.886 107.803 109.433C108.64 108.986 109.329 108.386 109.598 107.613L108.654 107.283ZM68 28C68 28.388 67.7299 29.0286 67.273 29.6029C67.053 29.8793 66.8106 30.1129 66.5751 30.2734C66.334 30.4376 66.138 30.5 66 30.5V31.5C66.4143 31.5 66.8069 31.3255 67.1381 31.0998C67.4749 30.8703 67.7885 30.5611 68.0555 30.2255C68.5724 29.5759 69 28.7166 69 28H68ZM65 26.5C65.4554 26.5 66.2544 26.696 66.9438 27.0346C67.2842 27.2018 67.5668 27.3889 67.7568 27.5769C67.9511 27.7692 68 27.9118 68 28H69C69 27.5359 68.7495 27.1524 68.4601 26.8661C68.1665 26.5755 67.7812 26.3317 67.3846 26.137C66.6002 25.7517 65.6491 25.5 65 25.5V26.5ZM63.5 28C63.5 27.1716 64.1716 26.5 65 26.5V25.5C63.6193 25.5 62.5 26.6193 62.5 28H63.5ZM66 30.5C65.8523 30.5 65.6179 30.4307 65.3179 30.2551C65.0281 30.0855 64.7209 29.8422 64.4393 29.5607C64.1578 29.2791 63.9146 28.9719 63.7449 28.6821C63.5693 28.3821 63.5 28.1477 63.5 28H62.5C62.5 28.4046 62.6676 28.8213 62.8819 29.1873C63.1022 29.5636 63.4018 29.9374 63.7322 30.2678C64.0626 30.5982 64.4364 30.8978 64.8127 31.1181C65.1787 31.3324 65.5954 31.5 66 31.5V30.5ZM144.424 107.19C144.838 106.827 145.108 106.308 145.274 105.76C145.442 105.208 145.517 104.588 145.515 103.98C145.514 103.37 145.436 102.755 145.286 102.207C145.139 101.666 144.912 101.153 144.588 100.783L143.835 101.442C144.022 101.655 144.196 102.007 144.322 102.47C144.446 102.925 144.514 103.452 144.515 103.982C144.517 104.513 144.451 105.031 144.317 105.469C144.182 105.913 143.99 106.241 143.765 106.437L144.424 107.19ZM137.474 107.012C137.822 107.41 138.368 107.668 138.938 107.833C139.522 108.002 140.195 108.091 140.866 108.105C141.538 108.119 142.225 108.058 142.837 107.916C143.439 107.776 144.017 107.547 144.424 107.19L143.765 106.437C143.534 106.64 143.139 106.819 142.611 106.942C142.092 107.063 141.489 107.118 140.887 107.105C140.284 107.093 139.7 107.013 139.216 106.873C138.719 106.729 138.389 106.54 138.226 106.354L137.474 107.012ZM137.984 102.169C136.531 103.44 136.243 105.607 137.474 107.012L138.226 106.354C137.414 105.426 137.54 103.887 138.643 102.921L137.984 102.169ZM144.588 100.783C144.197 100.337 143.608 100.196 143.046 100.187C142.474 100.178 141.833 100.303 141.212 100.494C139.977 100.872 138.689 101.551 137.984 102.169L138.643 102.921C139.215 102.42 140.366 101.799 141.505 101.45C142.071 101.276 142.601 101.18 143.031 101.187C143.471 101.194 143.715 101.305 143.835 101.442L144.588 100.783ZM147.761 64.5606C138.705 69.5003 129.193 69.2607 121.777 69.0674L121.751 70.067C129.147 70.2598 138.918 70.5228 148.24 65.4385L147.761 64.5606ZM132.635 76.9813C145.181 73.4683 153.283 68.3079 156.184 65.0842C156.551 64.6768 156.844 64.29 157.054 63.9314C157.261 63.5782 157.405 63.2228 157.436 62.8837C157.469 62.5275 157.377 62.1726 157.096 61.9063C156.834 61.6578 156.474 61.5494 156.098 61.5171C155.35 61.4528 154.283 61.6676 152.929 62.1518C151.558 62.6417 149.838 63.4277 147.761 64.5606L148.24 65.4385C150.287 64.3215 151.958 63.5605 153.265 63.0935C154.588 62.6207 155.486 62.4683 156.012 62.5134C156.273 62.5358 156.376 62.6012 156.408 62.6315C156.421 62.6441 156.452 62.6729 156.441 62.7914C156.428 62.9269 156.361 63.1369 156.191 63.4259C156.025 63.7094 155.777 64.0414 155.441 64.4152C152.717 67.4416 144.819 72.5312 132.365 76.0183L132.635 76.9813ZM117.518 69.3689C116.683 72.4502 117.103 75.3723 119.607 76.9923C122.038 78.5655 126.256 78.7673 132.635 76.9813L132.365 76.0183C126.037 77.7904 122.196 77.4768 120.15 76.1527C118.176 74.8755 117.7 72.5185 118.483 69.6304L117.518 69.3689ZM121.776 69.0673C120.446 69.0327 119.179 68.9996 118 68.9996V69.9996C119.164 69.9996 120.417 70.0323 121.75 70.067L121.776 69.0673ZM121.776 69.0674L121.776 69.0673L121.75 70.067L121.751 70.067L121.776 69.0674ZM146.769 139.557C142.257 141.91 136.462 142.986 131.015 143.364C125.577 143.74 120.536 143.417 117.569 143.005L117.431 143.995C120.464 144.416 125.573 144.743 131.085 144.361C136.588 143.98 142.543 142.889 147.231 140.443L146.769 139.557ZM131.735 141.437C137.207 140.286 142.857 139.098 146.225 138.674C147.066 138.567 147.747 138.511 148.239 138.513C148.486 138.513 148.667 138.529 148.789 138.552C148.935 138.581 148.911 138.605 148.857 138.546C148.817 138.501 148.783 138.433 148.779 138.352C148.777 138.317 148.781 138.289 148.786 138.27C148.791 138.252 148.796 138.242 148.796 138.241C148.797 138.24 148.794 138.246 148.785 138.258C148.777 138.269 148.764 138.285 148.745 138.305C148.708 138.346 148.653 138.398 148.576 138.461C148.26 138.721 147.68 139.081 146.769 139.557L147.231 140.443C148.153 139.962 148.81 139.563 149.21 139.235C149.404 139.076 149.583 138.897 149.686 138.698C149.74 138.593 149.785 138.457 149.777 138.3C149.768 138.133 149.701 137.988 149.6 137.876C149.424 137.681 149.168 137.607 148.981 137.571C148.77 137.53 148.518 137.513 148.242 137.513C147.685 137.511 146.955 137.574 146.1 137.681C142.681 138.113 136.981 139.312 131.529 140.458L131.735 141.437ZM131.744 141.435L131.744 141.435L131.52 140.46L131.519 140.46L131.744 141.435ZM131.79 141.422L131.79 141.422L131.474 140.473L131.473 140.473L131.79 141.422ZM117.5 144C118.553 144 120.584 143.677 123.078 143.204C125.592 142.728 128.632 142.089 131.734 141.437L131.529 140.458C128.423 141.111 125.394 141.748 122.892 142.222C120.371 142.699 118.44 143 117.5 143V144ZM113.939 162.144C116.234 162.424 120.097 162.641 124.264 162.387C128.423 162.134 132.932 161.408 136.488 159.775L136.071 158.866C132.679 160.424 128.314 161.139 124.203 161.389C120.1 161.639 116.298 161.424 114.061 161.151L113.939 162.144ZM124.582 159.459C122.236 159.893 119.949 160.316 118.061 160.631C116.155 160.949 114.703 161.147 114 161.147V162.147C114.802 162.147 116.343 161.931 118.225 161.618C120.124 161.301 122.421 160.876 124.764 160.442L124.582 159.459ZM136.488 159.775C137.185 159.455 137.689 159.186 138.002 158.96C138.149 158.854 138.308 158.72 138.404 158.556C138.455 158.467 138.508 158.337 138.499 158.178C138.489 158.008 138.41 157.87 138.312 157.774C138.149 157.615 137.926 157.563 137.788 157.54C137.623 157.511 137.428 157.5 137.217 157.5C136.793 157.499 136.238 157.541 135.591 157.613C133.006 157.9 128.697 158.697 124.582 159.459L124.764 160.442C128.898 159.677 133.162 158.888 135.702 158.606C136.336 158.536 136.847 158.499 137.215 158.5C137.4 158.5 137.532 158.51 137.618 158.525C137.732 158.545 137.684 158.559 137.613 158.49C137.561 158.438 137.507 158.351 137.501 158.238C137.495 158.137 137.529 158.07 137.54 158.052C137.554 158.028 137.54 158.061 137.417 158.15C137.188 158.315 136.759 158.55 136.071 158.866L136.488 159.775ZM97.5 144C94.8918 144 91.4162 142.837 87.4527 140.865C83.5053 138.901 79.1346 136.166 74.7557 133.091C65.9975 126.94 57.2482 119.458 51.8508 114.144L51.1492 114.856C56.5852 120.209 65.3769 127.726 74.181 133.909C78.5831 137.001 82.9988 139.766 87.0072 141.76C90.9996 143.746 94.6493 145 97.5 145V144ZM96.0683 147.995C97.7141 147.768 98.8926 147.46 99.6739 147.109C100.064 146.934 100.38 146.736 100.606 146.511C100.834 146.285 101 145.998 101 145.664C101 145.328 100.833 145.053 100.624 144.852C100.417 144.653 100.143 144.498 99.841 144.378C99.2349 144.137 98.4183 144 97.5 144V145C98.3317 145 99.0152 145.126 99.4715 145.307C99.7009 145.398 99.8485 145.494 99.9307 145.573C100.011 145.65 100 145.681 100 145.664C100 145.648 100.01 145.695 99.9014 145.802C99.7916 145.911 99.5925 146.049 99.2637 146.197C98.6074 146.492 97.5359 146.783 95.9317 147.005L96.0683 147.995ZM51.1135 118.817C59.1439 128.604 67.8918 136.225 75.8588 141.236C79.8422 143.741 83.6386 145.599 87.0597 146.747C90.4749 147.894 93.547 148.343 96.0683 147.995L95.9317 147.005C93.6197 147.324 90.7126 146.919 87.3779 145.799C84.0489 144.682 80.3245 142.863 76.3912 140.389C68.5249 135.442 59.8562 127.896 51.8865 118.183L51.1135 118.817ZM51.8254 114.12C51.2333 113.613 50.5706 113.095 49.9942 112.733C49.7085 112.553 49.4235 112.399 49.1669 112.307C49.0386 112.261 48.898 112.223 48.7559 112.213C48.6155 112.204 48.4339 112.219 48.2639 112.323C47.877 112.56 47.8843 113.004 47.9311 113.276C47.9844 113.586 48.1318 113.973 48.3605 114.439C48.8229 115.381 49.6869 116.782 51.0904 118.787L51.9096 118.213C50.5131 116.218 49.6855 114.869 49.2582 113.998C49.0422 113.558 48.9453 113.273 48.9166 113.107C48.8813 112.902 48.9688 113.064 48.7861 113.176C48.7182 113.218 48.6697 113.21 48.6886 113.211C48.7057 113.212 48.7506 113.22 48.8292 113.248C48.9865 113.304 49.2009 113.415 49.462 113.579C49.9794 113.905 50.6 114.387 51.1746 114.88L51.8254 114.12ZM8.70592 210.904C9.08127 211.177 9.50334 211.445 9.9639 211.693L10.439 210.813C10.017 210.585 9.63272 210.342 9.29408 210.095L8.70592 210.904ZM10.693 192.895C12.9011 194.612 15.3828 197.509 15.8428 200.635C16.0697 202.177 15.808 203.786 14.7594 205.373C13.7041 206.97 11.8308 208.575 8.78222 210.05L9.21778 210.95C12.3692 209.425 14.4084 207.718 15.5937 205.924C16.7858 204.12 17.0928 202.26 16.8322 200.49C16.3172 196.99 13.5989 193.888 11.307 192.105L10.693 192.895ZM10.8141 192.018C10.7785 192.043 10.7429 192.069 10.7072 192.095L11.2928 192.905C11.326 192.881 11.3592 192.857 11.3923 192.834L10.8141 192.018ZM4.5 202C4.5 197.711 7.34264 194.085 11.2478 192.905L10.9585 191.947C6.64312 193.251 3.5 197.258 3.5 202H4.5ZM10.3915 210.791C6.93347 209.37 4.5 205.968 4.5 202H3.5C3.5 206.388 6.19136 210.146 10.0114 211.716L10.3915 210.791ZM14 215.5C21.4558 215.5 27.5 209.456 27.5 202H26.5C26.5 208.904 20.9036 214.5 14 214.5V215.5ZM0.5 202C0.5 209.456 6.54416 215.5 14 215.5V214.5C7.09644 214.5 1.5 208.904 1.5 202H0.5ZM14 188.5C6.54416 188.5 0.5 194.544 0.5 202H1.5C1.5 195.096 7.09644 189.5 14 189.5V188.5ZM27.5 202C27.5 194.544 21.4558 188.5 14 188.5V189.5C20.9036 189.5 26.5 195.096 26.5 202H27.5ZM189.606 184.7C185.545 185.57 182.5 189.179 182.5 193.5H183.5C183.5 189.66 186.206 186.451 189.815 185.678L189.606 184.7ZM185.507 199.886C188.099 199.224 189.911 198.214 191.101 196.972C192.299 195.724 192.838 194.271 192.935 192.789C193.127 189.863 191.597 186.837 190.108 184.885L189.313 185.492C190.738 187.36 192.107 190.146 191.938 192.724C191.854 193.994 191.398 195.218 190.38 196.28C189.355 197.349 187.73 198.286 185.259 198.917L185.507 199.886ZM182.5 193.5C182.5 195.927 183.461 198.131 185.023 199.749L185.743 199.055C184.354 197.615 183.5 195.658 183.5 193.5H182.5ZM202.5 193.5C202.5 199.575 197.575 204.5 191.5 204.5V205.5C198.127 205.5 203.5 200.127 203.5 193.5H202.5ZM191.5 182.5C197.575 182.5 202.5 187.425 202.5 193.5H203.5C203.5 186.873 198.127 181.5 191.5 181.5V182.5ZM180.5 193.5C180.5 187.425 185.425 182.5 191.5 182.5V181.5C184.873 181.5 179.5 186.873 179.5 193.5H180.5ZM191.5 204.5C185.425 204.5 180.5 199.575 180.5 193.5H179.5C179.5 200.127 184.873 205.5 191.5 205.5V204.5Z" fill="black"/>
</svg>
