<svg width="186" height="187" viewBox="0 0 186 187" fill="none" xmlns="http://www.w3.org/2000/svg">
<path fill-rule="evenodd" clip-rule="evenodd" d="M186 93.5039C186 144.866 144.362 186.504 93 186.504C41.6375 186.504 1.90735e-06 144.866 1.90735e-06 93.5039C1.90735e-06 42.1414 41.6375 0.503894 93 0.503894C144.362 0.503894 186 42.1414 186 93.5039ZM18.8531 47.9697C24.3612 39.0194 31.4446 31.1422 39.7169 24.7244C84.2345 7.44414 97.2778 17.39 111.28 28.0674C112.343 28.8779 113.412 29.6926 114.5 30.5C116.931 32.3034 118.885 34.2579 120.452 36.3053C108.927 37.9753 100.162 46.383 100.162 56.5038C100.162 67.8256 109.631 74.5038 123.162 74.5038C125.099 74.5038 127.014 74.3669 128.874 74.0991L128.791 74.178L128.786 74.183C121.538 81.0752 116.147 86.202 116.752 95.774C113.896 94.6426 110.779 94.0038 107.61 94.0038C96.0125 94.0038 88.1105 102.563 88.1105 112.504C88.1105 122.445 96.0125 129.004 107.61 129.004C108.434 129.004 109.254 128.971 110.066 128.906C110.704 130.063 111.551 131.336 112.639 132.742C111.483 133.974 111.895 135.063 113.875 134.272C114.077 134.512 114.285 134.756 114.5 135.004C119.5 140.004 104.057 161.004 81.5 161.004C75.1574 161.004 69.1498 160.334 63.6402 159.719L63.6346 159.719C62.4328 159.585 61.2547 159.453 60.1019 159.332C60.1721 159.223 60.2365 159.109 60.2948 158.989C61.92 155.64 59.3532 151.04 54.5615 148.714C49.7699 146.389 43.1253 148.655 41.5 152.004C39.9006 155.3 42.6196 156.621 47.2735 158.879C44.0712 159.195 41.2651 160.016 38.9277 161.664C35.2746 158.762 31.8602 155.572 28.7186 152.13C36.361 142.243 46.1325 140.469 50.3224 140.893C50.9593 139.839 51.7127 137.878 49.6305 138.473C37.2213 138.383 30.2709 145.678 27.5161 150.785C23.4407 146.129 19.8537 141.036 16.8351 135.584C19.9983 139.268 24.5425 140.604 27.3429 138.539C30.3387 136.329 30.2045 131.064 27.0431 126.777C23.8817 122.491 18.8904 120.807 15.8946 123.017C13.9954 124.418 13.3542 127.047 13.9446 129.876C11.9105 125.462 10.2352 120.849 8.95607 116.073C14.651 108.752 22.0865 105.673 25.4228 105.032C25.8915 104.208 26.4057 102.772 24.7133 103.626C16.2757 105.874 11.1589 110.499 8.48907 114.251C6.86248 107.602 6 100.654 6 93.5039C6 82.6778 7.97741 72.3137 11.5907 62.7528C13.2863 65.1807 17.5367 65.1151 24.4506 59.1892C30 55.5036 32.8176 53.5234 31.7461 49.9585C30.6747 46.3936 25.1007 45.9707 20 47.5037C19.6161 47.6191 19.233 47.7762 18.8531 47.9697ZM113.875 134.272L113.875 134.272C115.536 133.607 119.875 132.938 122.375 133.272C124.042 133.272 126.675 132.872 123.875 131.272C121.075 129.672 116.042 130.938 113.875 131.772C113.355 132.084 112.943 132.418 112.639 132.742C113.02 133.235 113.432 133.745 113.875 134.272ZM108.805 125.978C109.065 126.864 109.476 127.836 110.066 128.906C120.701 128.056 130.11 121.739 130.11 112.504C130.11 105.279 124.352 98.7836 116.752 95.774C116.822 96.8705 116.97 98.0254 117.203 99.2479C114.287 97.8299 110.976 97.0038 107.61 97.0038C97.6336 97.0038 91.1105 104.255 91.1105 112.504C91.1105 116.616 92.7154 119.891 95.4428 122.186C98.2165 124.52 102.359 126.004 107.61 126.004C108.01 126.004 108.409 125.995 108.805 125.978ZM108.805 125.978C107.274 120.753 111.025 118.476 114.678 116.258C117.621 114.471 120.5 112.723 120.5 109.504C118.839 105.595 117.77 102.221 117.203 99.2479C118.694 99.9732 120.082 100.853 121.321 101.857C124.995 104.833 127.11 108.669 127.11 112.504C127.11 116.251 125.086 119.541 121.505 122.013C118.17 124.315 113.637 125.771 108.805 125.978ZM126.064 69.3863C126.171 72.3146 126.927 73.9399 129.5 73.5039L129.164 73.824L128.874 74.0991C140.007 72.4964 149.162 66.2047 149.162 56.5038C149.162 45.1819 138.193 36.0038 124.662 36.0038C123.226 36.0038 121.82 36.1071 120.452 36.3053C121.625 37.8384 122.581 39.4236 123.358 41.0365C112.438 41.5887 105.162 49.0345 105.162 56.5038C105.162 60.6051 106.801 63.6313 109.613 65.7687C112.568 68.0144 117.153 69.5038 123.162 69.5038C124.145 69.5038 125.114 69.4638 126.064 69.3863ZM126.064 69.3863C126.01 67.8967 126.125 66.07 126.254 64.0059V64.0059C126.652 57.6331 127.192 48.9976 123.358 41.0365C123.787 41.0148 124.222 41.0038 124.662 41.0038C136.303 41.0038 144.162 48.7411 144.162 56.5038C144.162 60.0552 142.291 63.1324 138.536 65.541C135.323 67.602 130.939 68.9886 126.064 69.3863ZM61.5144 70.5146C64.1139 70.1899 65.236 69.1605 65.6083 68.358C65.9805 67.5556 66.0417 66.034 64.6107 63.8397C63.2161 61.701 60.6841 59.4597 57.2473 57.8654C53.8106 56.2712 50.4642 55.7856 47.9306 56.1021C45.3311 56.4268 44.209 57.4562 43.8367 58.2586C43.4645 59.0611 43.4033 60.5826 44.8342 62.777C46.2289 64.9157 48.7609 67.157 52.1976 68.7512C55.6344 70.3455 58.9808 70.8311 61.5144 70.5146ZM50.5144 72.3798C58.5305 76.0983 66.9128 75.0513 69.2369 70.0413C71.5609 65.0312 66.9467 57.9554 58.9306 54.2368C50.9145 50.5183 42.5322 51.5653 40.2081 56.5754C37.884 61.5854 42.4983 68.6613 50.5144 72.3798ZM52.9258 125.331C52.5241 126.197 52.1445 126.471 51.9124 126.591C51.6295 126.738 51.0833 126.897 50.0312 126.809C47.7446 126.616 44.536 125.412 40.1674 123.386C36.0816 121.49 33.1659 119.447 31.6029 117.52C30.2015 115.792 30.0992 114.526 30.7203 113.187C31.4363 111.643 33.1336 110.295 35.9922 109.775C38.8379 109.258 42.4779 109.671 46.131 111.365C53.0166 114.559 54.6983 121.51 52.9258 125.331ZM56.5543 127.014C53.7335 133.095 47.108 131.015 38.4842 127.014C29.8603 123.014 24.2709 117.585 27.0917 111.504C29.9126 105.423 39.1903 103.736 47.8142 107.737C56.4381 111.737 59.3752 120.933 56.5543 127.014ZM76.5934 82.9242C76.6067 82.8224 76.5977 82.8017 76.5618 82.7395C76.4301 82.5119 75.9437 81.9821 74.4954 81.8798C73.0744 81.7795 71.1565 82.1691 69.2122 83.2938C67.268 84.4186 65.9742 85.887 65.3528 87.1689C64.7195 88.4755 64.9364 89.1612 65.0681 89.3888L65.0784 89.4069C65.1643 89.5584 65.3107 89.8166 66.2728 89.7879C67.4506 89.7526 69.2649 89.2208 71.497 87.9295C73.7232 86.6416 75.2993 85.2153 76.0882 84.0324C76.4702 83.4595 76.5722 83.0875 76.5934 82.9242ZM73.5 91.3918C78.5861 88.4495 82.0155 84.1787 80.0241 80.7365C78.0327 77.2943 72.2953 76.8891 67.2092 79.8315C62.1231 82.7739 59.6143 87.9496 61.6057 91.3918C63.5971 94.8341 68.4139 94.3342 73.5 91.3918ZM93.4607 30.7585L93.4611 30.7578C93.5397 30.633 93.7291 30.1933 93.2312 29.1847C92.7414 28.1924 91.7592 27.0975 90.4859 26.2959C87.944 24.6958 85.9958 25.6101 85.549 26.3199C85.2321 26.8232 85.233 27.1878 85.4034 27.6051C85.6271 28.1532 86.2531 28.9704 87.5982 29.8171C88.8521 30.6064 90.4259 31.0921 91.739 31.1388C92.3845 31.1617 92.8481 31.0745 93.1348 30.9648C93.3935 30.8657 93.4499 30.7757 93.4607 30.7585ZM86 32.356C89.349 34.4641 94.3376 34.9969 96 32.356C97.6624 29.715 95.433 25.8652 92.084 23.757C88.7351 21.6489 84.6725 22.0808 83.0101 24.7218C81.3477 27.3627 82.651 30.2478 86 32.356ZM70.9393 44.1994C71.3758 44.1366 71.6171 44.0487 71.7321 43.9946C71.7276 43.8099 71.6197 43.2528 70.6697 42.4276C69.6114 41.5083 67.8739 40.6386 65.6869 40.2288C63.4999 39.819 61.5654 40.0005 60.2461 40.4743C59.1133 40.881 58.7874 41.3381 58.699 41.5263C58.7984 41.6281 59.0092 41.8073 59.4165 42.0331C60.6005 42.6895 62.5546 43.2632 65.1135 43.7427C67.6762 44.223 69.6524 44.3847 70.9393 44.1994ZM74.6774 44.6101C74.1027 47.6773 69.7959 47.6724 64.5609 46.6914C59.326 45.7104 55.1453 44.1248 55.72 41.0576C56.2948 37.9904 61.0045 36.2991 66.2395 37.2801C71.4744 38.2611 75.2522 41.5428 74.6774 44.6101ZM80.2997 125.543L80.301 125.541C80.568 124.99 80.6288 124.062 79.92 122.791C79.2169 121.531 77.8678 120.202 75.9569 119.275C74.0461 118.348 72.1673 118.11 70.7425 118.338C69.306 118.567 68.6139 119.189 68.347 119.739C67.9815 120.492 68.0661 120.885 68.3851 121.366C68.868 122.094 70.0185 123.071 72.2443 124.151C74.4379 125.216 76.6487 125.886 78.3277 125.983C80.057 126.083 80.2773 125.593 80.2997 125.543ZM70.9345 126.85C75.7261 129.176 81.3747 130.199 83 126.85C84.6252 123.502 82.0584 118.902 77.2668 116.576C72.4751 114.251 67.2732 115.081 65.648 118.429C64.0228 121.778 66.1429 124.525 70.9345 126.85ZM57.5958 157.679L57.5945 157.682C57.5851 157.704 57.5427 157.802 57.2286 157.92C56.8438 158.065 56.1933 158.171 55.2447 158.121C53.3456 158.019 50.9464 157.327 48.8098 156.29L48.6222 156.199L48.6212 156.198C47.4806 155.645 46.5457 155.191 45.757 154.758C44.9128 154.294 44.4225 153.951 44.1473 153.693C44.1173 153.665 44.0924 153.64 44.0719 153.619C44.0951 153.548 44.134 153.448 44.199 153.314C44.487 152.72 45.6158 151.694 47.6574 151.119C49.5936 150.573 51.6678 150.645 53.2517 151.413C55.1626 152.341 56.5117 153.67 57.2148 154.93C57.9236 156.2 57.8628 157.129 57.5958 157.679ZM43.9848 153.515L43.9843 153.514C43.9842 153.514 43.9853 153.516 43.9882 153.52L43.9848 153.515ZM44.0387 153.754C44.0389 153.754 44.0394 153.751 44.0396 153.744L44.0388 153.751L44.0387 153.753V153.754L44.0387 153.754C44.0387 153.754 44.0387 153.754 44.0387 153.754ZM22.7896 136.252C24.168 136.717 25.0701 136.488 25.5622 136.125C26.0543 135.762 26.54 134.968 26.5029 133.513C26.4661 132.071 25.8895 130.267 24.6287 128.558C23.368 126.849 21.815 125.765 20.4479 125.304C19.0695 124.839 18.1674 125.068 17.6753 125.431C17.1832 125.794 16.6975 126.588 16.7346 128.042C16.7714 129.485 17.348 131.289 18.6088 132.998C19.8695 134.707 21.4225 135.791 22.7896 136.252ZM22.7909 56.6901L22.6378 56.7918L22.4983 56.9113C18.6747 60.1885 16.1858 61.1495 14.9148 61.2476C14.3614 61.2903 14.1789 61.1626 14.155 61.1459L14.1547 61.1457C14.1217 61.1227 13.9866 61.0181 13.873 60.6403C13.8732 60.6407 13.8731 60.6405 13.873 60.6397C13.8702 60.6276 13.838 60.4843 13.8618 60.1622C13.8863 59.8294 13.9643 59.3935 14.1179 58.8648C14.4264 57.8026 14.9863 56.5504 15.7465 55.3041C17.363 52.6543 19.3807 50.8224 20.8635 50.3768C23.1079 49.7022 25.2994 49.5142 26.8923 49.7788C28.5392 50.0524 28.8134 50.6233 28.8731 50.822C29.0073 51.2686 28.9741 51.486 28.9415 51.6075C28.9004 51.7602 28.7773 52.0494 28.3536 52.5191C27.3997 53.5766 25.6835 54.769 22.7909 56.6901ZM105.383 141.621C105.027 140.072 104.278 139.276 103.712 139.013C103.711 139.013 103.7 139.008 103.674 139.002C103.647 138.996 103.601 138.988 103.532 138.986C103.39 138.982 103.17 139.001 102.865 139.082C102.239 139.247 101.435 139.627 100.545 140.25C98.7438 141.513 97.074 143.433 96.2202 145.269C95.4239 146.981 95.6007 148.02 95.8987 148.659C96.2464 149.404 97.0238 150.156 98.2615 150.732C98.8727 151.016 99.9661 151.073 101.329 150.396C102.651 149.739 103.963 148.496 104.78 146.739C105.599 144.977 105.726 143.116 105.383 141.621ZM107.5 148.004C109.704 143.266 108.289 137.833 104.977 136.293C101.665 134.753 95.7038 139.266 93.5 144.004C91.2962 148.742 93.6847 151.912 96.9963 153.452C100.308 154.992 105.296 152.742 107.5 148.004ZM21.5151 84.3045C21.7265 86.4009 21.4515 88.2125 20.8653 89.4176C20.3384 90.5006 19.6323 91.0213 18.5967 91.1257C17.3607 91.2503 16.6058 90.8595 16.008 90.1444C15.2984 89.2956 14.6973 87.8093 14.4849 85.7025C14.2725 83.5965 14.5552 81.9275 15.1036 80.8652C15.5761 79.9497 16.2493 79.4221 17.4048 79.3055C18.7772 79.1671 19.5327 79.5669 20.0654 80.1584C20.7115 80.8758 21.3036 82.2065 21.5151 84.3045ZM24.5 84.0035C24.9954 88.9161 23.3733 93.6593 18.8977 94.1106C14.4221 94.5619 11.9954 90.9161 11.5 86.0035C11.0046 81.091 12.6282 76.772 17.1038 76.3207C21.5794 75.8694 24.0046 79.091 24.5 84.0035ZM102 72.5038C94.4 70.1038 89.1666 74.5038 87.5 77.0038C87 77.8371 86.3 79.2038 87.5 78.0038C93.5 72.4038 99.6666 73.0038 102 74.0038C102.5 73.5038 103.2 72.5038 102 72.5038ZM35 36.0039C42.1667 31.6706 57.2 23.0039 60 23.0039C62.8 23.0039 62.8333 23.6706 62.5 24.0039C58.8333 25.3372 48.5 29.9039 36.5 37.5039C35 38.5039 35 37.0039 35 36.0039ZM153.553 86.6691C153.723 86.9754 153.802 87.886 152.498 89.5912C151.317 91.1352 149.438 92.6934 147.528 93.7561C145.606 94.8248 144.385 94.9855 143.65 94.8487C143.013 94.73 142.382 94.3185 141.772 93.222C141.38 92.5165 141.333 91.4545 141.99 90.1329C142.643 88.8212 143.917 87.4522 145.718 86.4499C147.52 85.4477 149.355 85.0873 150.814 85.2248C152.283 85.3633 153.161 85.9636 153.553 86.6691ZM155.301 85.6969C156.912 88.5927 152.718 93.1574 148.5 95.5039C144.282 97.8504 141.635 97.0901 140.025 94.1942C138.414 91.2983 140.528 87.0486 144.746 84.7021C148.965 82.3557 153.69 82.801 155.301 85.6969ZM162.5 65.5039C159.7 63.9039 154.667 65.1705 152.5 66.0039C150 67.5038 150 69.5038 152.5 68.5038C154.161 67.8395 158.5 67.1705 161 67.5038C162.667 67.5038 165.3 67.1039 162.5 65.5039Z" fill="black"/>
</svg>
