<svg width="214" height="248" viewBox="0 0 214 248" fill="none" xmlns="http://www.w3.org/2000/svg">
<path fill-rule="evenodd" clip-rule="evenodd" d="M92.6676 8.52924C93.7262 5.43584 94.0844 1.9844 94.0844 0H97.0844C97.0844 7.61534 99.8862 11.3014 102.109 13.0528C103.152 13.8737 104.11 14.3033 104.684 14.5022L104.772 14.5178C104.986 14.5559 105.172 14.5961 105.318 14.6378L105.319 14.6379C105.367 14.6518 105.507 14.6917 105.654 14.7641C105.695 14.7849 105.777 14.8273 105.87 14.8939L105.873 14.8959C105.929 14.9359 106.182 15.1174 106.35 15.4627C106.45 15.6705 106.544 15.9912 106.478 16.3741C106.411 16.7637 106.207 17.0454 106.019 17.2201C105.713 17.5034 105.379 17.5736 105.31 17.5883L105.306 17.5891C105.111 17.6305 104.948 17.6231 104.91 17.6214L104.907 17.6212C104.841 17.6184 104.784 17.6121 104.743 17.6069C104.66 17.5963 104.576 17.581 104.5 17.5648L104.46 17.5563C102.686 18.0809 101.292 19.4039 100.188 21.2374C99.0029 23.2049 98.2435 25.6177 97.7687 27.8034C97.2971 29.9748 97.125 31.8327 97.0716 32.6349L97.0657 32.7268C97.0626 32.8328 97.0596 32.9152 97.0568 32.9752L97.0566 32.981C97.0553 33.012 97.0509 33.1138 97.0395 33.1983C97.0375 33.2125 97.0322 33.2463 97.0287 33.2663C97.0226 33.2982 97.0017 33.3873 96.9852 33.4442C96.9361 33.5794 96.5165 34.1492 96.021 34.425C95.077 34.4227 94.1976 33.6439 94.1104 33.4133C94.0896 33.332 94.0669 33.209 94.0617 33.1679L94.0604 33.1548L94.0579 33.1272C94.0565 33.1107 94.0553 33.095 94.0547 33.0861C94.0528 33.0545 94.0523 33.0291 94.0522 33.018C94.0515 32.9767 94.0525 32.9372 94.053 32.9194C94.0549 32.8499 94.0597 32.7391 94.0683 32.5942C94.076 32.3095 94.0844 31.8205 94.0844 31.0906C94.0844 26.6142 93.1879 23.7376 92.0753 21.8842C90.9718 20.0459 89.5964 19.1143 88.4423 18.6203C87.3948 18.172 86.5243 18.0763 86.07 18.0264C86.0147 18.0203 85.9656 18.0149 85.923 18.0097L85.9192 18.0092C85.8894 18.0058 85.7267 17.9869 85.5652 17.9361C85.5129 17.9196 85.3998 17.8816 85.2696 17.8083C85.176 17.7556 84.848 17.5637 84.6472 17.1439C84.3764 16.5775 84.5167 16.0143 84.7528 15.6602C84.9335 15.389 85.1545 15.25 85.2241 15.2074C85.3832 15.11 85.5299 15.0621 85.5661 15.0503L85.5691 15.0493C85.6276 15.0302 85.6809 15.0159 85.7165 15.0068C85.7886 14.9883 85.8719 14.9697 85.9478 14.9531L86.0988 14.9203C86.4305 14.8487 86.9522 14.7361 87.73 14.54C89.9383 13.9835 91.5771 11.7158 92.6676 8.52924ZM95.9611 23.2225C96.4015 22.0131 96.9454 20.8062 97.6179 19.6897C98.478 18.2615 99.5815 16.9299 100.987 15.9475C100.746 15.7836 100.501 15.6046 100.253 15.4094C98.578 14.0899 96.8473 12.0758 95.647 9.07556C95.6013 9.21768 95.5543 9.3594 95.506 9.50059C94.6097 12.1198 93.1425 14.8835 90.7652 16.4369C92.1075 17.2194 93.5069 18.4401 94.6475 20.3402C95.1493 21.1761 95.5937 22.1313 95.9611 23.2225ZM86.2688 15.0291C86.2694 15.0291 86.2772 15.03 86.2905 15.0323C86.2749 15.0303 86.2683 15.0292 86.2688 15.0291ZM185.719 219.116C179.105 219.988 174 225.648 174 232.5C174 235.801 175.185 238.826 177.153 241.171C184.473 242.157 196.053 241.846 191.5 233.5C190.995 232.491 189.359 231.991 188.018 231.581C185.375 230.774 183.883 230.318 194.5 227C199.5 224.5 190 223 186 225C183.02 226.49 184.434 222.026 185.719 219.116ZM203.575 118C203.575 119.498 203.256 122.11 202.308 124.455C201.353 126.82 199.865 128.67 197.667 129.139C196.963 129.289 196.489 129.376 196.192 129.43L196.058 129.455C195.99 129.468 195.923 129.48 195.868 129.492C195.84 129.498 195.804 129.507 195.765 129.517L195.763 129.518C195.739 129.524 195.647 129.55 195.546 129.602L195.546 129.602C195.507 129.623 195.35 129.704 195.215 129.875C195.138 129.974 195.04 130.137 195.009 130.361C194.977 130.599 195.033 130.818 195.13 130.989C195.286 131.267 195.524 131.379 195.572 131.403L195.575 131.404C195.617 131.424 195.656 131.439 195.688 131.45L195.706 131.456L195.725 131.461C195.738 131.465 195.748 131.468 195.756 131.47C195.855 131.497 195.957 131.507 195.987 131.51L195.992 131.51C196.025 131.514 196.064 131.518 196.108 131.522L196.117 131.523L196.118 131.523C196.528 131.561 197.37 131.638 198.373 132.002C199.484 132.405 200.763 133.151 201.771 134.572C202.778 135.993 203.575 138.174 203.575 141.553C203.575 142.106 203.568 142.475 203.561 142.691L203.558 142.735L203.554 142.796C203.551 142.855 203.549 142.903 203.547 142.938C203.547 142.945 203.547 142.956 203.547 142.971C203.546 142.984 203.546 142.999 203.547 143.014L203.547 143.027L203.547 143.04C203.548 143.048 203.548 143.057 203.549 143.068L203.551 143.093L203.553 143.113L203.556 143.132C203.56 143.164 203.581 143.259 203.6 143.321C203.673 143.486 204.246 143.954 204.815 143.963C205.143 143.803 205.444 143.442 205.486 143.344C205.501 143.301 205.52 143.233 205.525 143.208L205.529 143.188C205.531 143.175 205.534 143.163 205.535 143.156C205.545 143.091 205.549 143.012 205.551 142.988L205.551 142.988V142.988L205.551 142.983C205.553 142.938 205.556 142.875 205.559 142.795L205.564 142.726C205.612 142.12 205.765 140.714 206.187 139.07C207.041 135.74 208.842 131.992 212.506 131.15C212.559 131.161 212.608 131.171 212.653 131.179C212.714 131.19 212.775 131.199 212.833 131.206C212.861 131.209 212.898 131.212 212.938 131.213L212.94 131.214C212.964 131.214 213.059 131.218 213.172 131.198L213.175 131.197C213.212 131.191 213.417 131.155 213.617 130.999C213.741 130.901 213.918 130.711 213.98 130.411C214.042 130.108 213.951 129.859 213.868 129.713C213.737 129.484 213.55 129.373 213.518 129.354L213.515 129.352C213.454 129.315 213.402 129.292 213.376 129.281C213.283 129.242 213.191 129.22 213.152 129.21C213.042 129.184 212.893 129.156 212.71 129.128L212.595 129.111C212.041 128.952 211.126 128.608 210.138 127.949C208.065 126.566 205.575 123.739 205.575 118H203.575ZM209.789 130.079C207.267 131.512 205.774 134.105 204.892 136.501C204.516 135.283 204.004 134.265 203.402 133.416C202.349 131.93 201.06 131.018 199.863 130.457C201.973 129.355 203.324 127.279 204.163 125.204C204.323 124.807 204.468 124.404 204.597 124.001C205.66 126.762 207.396 128.524 209.028 129.613C209.287 129.785 209.542 129.94 209.789 130.079ZM164.5 41.5002C169.721 35.9306 164.971 35.2584 160.795 35.727C154.535 37.7191 150 43.5799 150 50.5C150 54.8503 151.792 58.782 154.679 61.5971C167.276 63.2571 174.912 56.5002 170 56.5002C155.5 56.0002 167.5 51.0002 170 50.5002C172 50.1002 170.833 48.0002 170 47.0002C165.667 47.8335 158.5 47.9002 164.5 41.5002ZM63.9117 175.419C60.2186 173.214 56.9787 166.758 73.5637 158.571C77.9666 157.206 86.5 166 67.0998 183.685C63.4 187.501 61.7069 179.112 63.9117 175.419ZM45.5 194.5C33.1 206.5 36.6667 216.833 40 220.5C42.6301 223.13 43.723 220.978 45.7743 216.938C47.2327 214.066 49.1757 210.24 52.5 206.5C60.5 197.5 50.5 190 45.5 194.5ZM38 161C31.8602 166.353 19.2072 180.508 15.1267 196.22C12.7383 192.312 10.6642 188.191 8.93926 183.892C13.8207 166.998 26.6535 151.331 31.5 146C36.5 140.5 29.5 136 25 139.5C15.1265 147.963 8.1543 162.747 5.04271 171.383C3.70575 165.47 3 159.317 3 153C3 136.019 8.09968 120.228 16.8511 107.077C18.6939 108.407 26.6592 104.369 29.6028 102.877L29.6029 102.877L29.603 102.877L29.6031 102.877C30.559 102.393 30.9852 102.177 30.5 102.5C27.1704 111.009 26.4063 114.209 30.007 114.568C33.5908 104.469 47.9799 89.6174 63.8401 83.1328C72.5 81.5 71 86 66.0002 87C58.1145 91.4047 40.4622 101.393 33.8093 114.302C34.3357 114.218 34.8988 114.116 35.5 114C43.9482 112.365 51.9507 106.125 57.2408 102C61.6566 98.5573 64.1825 96.5878 63.5001 100C52.0001 115.5 61.5001 122.5 67.5 117C82 98 87 108 82 112.5C77.8549 117.921 74.6884 122.642 72.3018 126.74C78.4665 121.451 84.6714 117.886 92.9139 115.444C94.108 115.324 93.5444 116.72 93.1133 117.434C87.8262 119.699 76.0611 127.098 68.4999 133.5L71.7181 127.523C65.1275 133.031 60.0494 138.945 57.4457 142.614C56.1525 144.754 57.8943 147.092 59.6849 144.903C61.8305 140.711 65.1274 136.776 68.9042 133.24C61.6267 149.202 69.0033 152.371 70.5 150.5C104.5 123 130 124.621 126 126C79.6543 141.981 89.8161 153.174 94.2405 158.047C95.353 159.272 96.1028 160.098 95.5 160.5C80 174.63 86 183 88.5 183C91 183 93.5 181.5 103.5 174.63C116.072 169.283 123.586 170.392 121 171.5C104 176.5 82.5 193 86 194C113.2 197.6 88.6667 214.5 73 222.5L71 231.5C70.493 231.804 68.5668 233.034 67.5867 233.95C46.3674 229.144 28.2333 216.209 16.6309 198.59C19.5959 189.435 28.2851 170.881 40.5 163C42.5 161 40 159.5 38 161ZM72.5 217C80.5 214.833 95.7 207.9 92.5 197.5C90.5 193 70.5 200 72.5 217ZM86 239C133.496 239 172 200.496 172 153C172 105.504 133.496 67 86 67C38.5035 67 0 105.504 0 153C0 200.496 38.5035 239 86 239ZM141.209 214.029C200.209 155.529 147.709 74.0314 98.2086 74.0315C94.4343 73.8259 96.2987 74.6668 97.9213 75.3987C98.0184 75.4424 98.1145 75.4858 98.2086 75.5286C177.5 97.5 172 183 140 212C136.808 214.893 137.708 217.5 141.209 214.029ZM165.5 68C175.165 68 183 60.165 183 50.5C183 40.835 175.165 33 165.5 33C155.835 33 148 40.835 148 50.5C148 60.165 155.835 68 165.5 68ZM203 232.5C203 241.06 196.06 248 187.5 248C178.94 248 172 241.06 172 232.5C172 223.94 178.94 217 187.5 217C196.06 217 203 223.94 203 232.5ZM37 37.5C37 39.9853 34.9853 42 32.5 42C30.0147 42 28 39.9853 28 37.5C28 35.0147 30.0147 33 32.5 33C34.9853 33 37 35.0147 37 37.5ZM186.5 77C188.985 77 191 74.9853 191 72.5C191 70.0147 188.985 68 186.5 68C184.015 68 182 70.0147 182 72.5C182 74.9853 184.015 77 186.5 77Z" fill="black"/>
</svg>
