<svg width="186" height="187" viewBox="0 0 186 187" fill="none" xmlns="http://www.w3.org/2000/svg">
<circle cx="93" cy="93.5039" r="90" stroke="black" stroke-width="6"/>
<path d="M67.4226 69.1997C66.6554 70.8534 64.7561 72.1253 61.7622 72.4992C58.8014 72.869 55.0784 72.2923 51.356 70.5655C47.6336 68.8388 44.7888 66.3688 43.159 63.8695C41.5109 61.3423 41.2553 59.0708 42.0224 57.417C42.7895 55.7633 44.6889 54.4914 47.6827 54.1175C50.6436 53.7477 54.3666 54.3244 58.089 56.0512C61.8114 57.7779 64.6561 60.2479 66.286 62.7472C67.934 65.2744 68.1897 67.5459 67.4226 69.1997Z" stroke="black" stroke-width="4"/>
<path d="M54.74 126.173C54.1866 127.366 53.5253 128.008 52.833 128.367C52.1152 128.739 51.1611 128.911 49.8633 128.802C47.1765 128.575 43.666 127.213 39.3258 125.2C35.1269 123.252 31.8924 121.052 30.0495 118.779C28.2875 116.607 27.8903 114.535 28.906 112.345C29.9692 110.053 32.3302 108.408 35.6345 107.807C38.9324 107.208 42.9901 107.704 46.9726 109.551C54.7274 113.148 57.0367 121.222 54.74 126.173Z" stroke="black" stroke-width="4"/>
<path d="M78.2929 81.738C78.7663 82.5563 78.7566 83.6357 77.7521 85.142C76.7356 86.6664 74.8831 88.2811 72.4985 89.6607C70.1109 91.0419 67.9659 91.7381 66.3325 91.787C64.7873 91.8332 63.8775 91.3248 63.3369 90.3903C62.7732 89.416 62.7295 87.9959 63.5531 86.2966C64.3708 84.6096 65.9671 82.8607 68.2107 81.5627C70.4544 80.2647 72.7662 79.7527 74.6363 79.8848C76.52 80.0178 77.7292 80.7637 78.2929 81.738Z" stroke="black" stroke-width="4"/>
<path d="M134.531 139.513C135.016 140.974 135.1 142.277 134.673 143.336C134.26 144.356 133.285 145.358 131.185 146.054C129.054 146.761 126.323 146.964 124.018 146.614C122.868 146.439 121.877 146.135 121.139 145.727C120.398 145.318 119.993 144.854 119.838 144.388C119.45 143.218 119.754 141.826 120.78 140.474C121.802 139.126 123.487 137.909 125.611 137.205C127.734 136.5 129.812 136.469 131.437 136.938C133.068 137.409 134.144 138.344 134.531 139.513Z" stroke="black" stroke-width="2"/>
<path d="M94.7306 31.5569C94.317 32.2138 93.3334 32.6964 91.6857 32.6378C90.0924 32.5812 88.2633 32.0082 86.7991 31.0865C85.2893 30.1362 84.3948 29.1034 84.0146 28.1719C83.6611 27.3058 83.7055 26.4328 84.2795 25.5209C85.3342 23.8455 88.3395 23.1724 91.2849 25.0265C92.7589 25.9543 93.9472 27.2465 94.5763 28.5207C95.2093 29.8031 95.1855 30.8342 94.7306 31.5569Z" stroke="black" stroke-width="3"/>
<path d="M73.2031 44.3338C73.1292 44.7283 72.9608 44.9687 72.7031 45.1578C72.4057 45.376 71.9152 45.5744 71.153 45.6841C69.6081 45.9065 67.4273 45.7024 64.8372 45.2171C62.249 44.7321 60.095 44.1244 58.6891 43.345C57.9932 42.9592 57.5859 42.5877 57.3747 42.2676C57.1921 41.991 57.1237 41.7112 57.1944 41.3339C57.3433 40.5391 58.0887 39.6552 59.7391 39.0625C61.3506 38.4839 63.5609 38.3043 65.9632 38.7545C68.3654 39.2046 70.3608 40.1723 71.6534 41.2952C72.9772 42.4452 73.352 43.539 73.2031 44.3338Z" stroke="black" stroke-width="3"/>
<path d="M81.6505 126.196C81.2372 127.047 80.2336 127.596 78.2412 127.481C76.2946 127.368 73.8841 126.615 71.5894 125.501C69.2786 124.38 67.8394 123.257 67.135 122.195C66.5126 121.256 66.4084 120.298 66.9975 119.084C67.5373 117.972 68.7367 117.139 70.5063 116.856C72.2699 116.575 74.4585 116.881 76.6118 117.926C78.7652 118.971 80.3595 120.501 81.2298 122.06C82.103 123.625 82.1903 125.083 81.6505 126.196Z" stroke="black" stroke-width="3"/>
<path d="M58.9453 158.334C58.5534 159.141 57.4265 159.739 55.1647 159.619C53.0169 159.504 50.4211 158.739 48.1549 157.639C48.0864 157.606 48.0184 157.573 47.9509 157.54C46.8261 156.994 45.8583 156.525 45.0348 156.072C44.1556 155.589 43.5341 155.175 43.1205 154.787C42.7219 154.412 42.5934 154.135 42.5549 153.919C42.5153 153.696 42.5318 153.313 42.8495 152.659C43.3998 151.525 44.998 150.31 47.2504 149.675C49.4501 149.055 51.9168 149.098 53.9066 150.064C56.06 151.109 57.6543 152.639 58.5246 154.199C59.3978 155.763 59.4851 157.221 58.9453 158.334Z" stroke="black" stroke-width="3"/>
<path d="M26.4526 137.332C25.4576 138.066 24.0081 138.246 22.3102 137.673C20.6179 137.103 18.8223 135.815 17.4016 133.888C15.9809 131.962 15.2806 129.866 15.2351 128.081C15.1894 126.289 15.7899 124.958 16.7849 124.224C17.7799 123.49 19.2294 123.31 20.9273 123.882C22.6196 124.453 24.4152 125.741 25.8359 127.668C27.2566 129.594 27.9569 131.69 28.0024 133.475C28.0481 135.267 27.4476 136.598 26.4526 137.332Z" stroke="black" stroke-width="3"/>
<path d="M23.6207 57.9396L23.5442 57.9905L23.4744 58.0503C19.575 61.3925 16.7832 62.6079 15.0302 62.7432C14.1935 62.8077 13.6515 62.6242 13.2951 62.375C12.9336 62.1223 12.6272 61.7065 12.4365 61.072C12.2927 60.5933 12.3116 59.7056 12.6774 58.4464C13.0292 57.2354 13.6493 55.8618 14.466 54.523C16.1474 51.7667 18.4152 49.5463 20.4318 48.9403C22.8291 48.2197 25.2592 47.9869 27.1382 48.2991C29.0441 48.6158 30.0119 49.3997 30.3096 50.3903C30.5106 51.0592 30.5065 51.564 30.39 51.997C30.2694 52.4456 29.9953 52.9387 29.4674 53.5239C28.3584 54.7533 26.4544 56.0577 23.6207 57.9396Z" stroke="black" stroke-width="3"/>
<path d="M104.344 137.653C105.456 138.17 106.421 139.439 106.845 141.285C107.263 143.104 107.101 145.306 106.14 147.371C105.18 149.434 103.625 150.929 101.996 151.739C100.347 152.559 98.7624 152.619 97.6289 152.092C96.1821 151.419 95.0809 150.454 94.5393 149.293C94.0225 148.185 93.911 146.677 94.8601 144.637C95.838 142.534 97.6935 140.418 99.6841 139.022C100.674 138.328 101.638 137.855 102.481 137.632C103.329 137.407 103.937 137.463 104.344 137.653Z" stroke="black" stroke-width="3"/>
<path d="M23.0076 84.154C23.2371 86.4304 22.9588 88.5431 22.2141 90.0738C21.4992 91.5435 20.3839 92.4531 18.7472 92.6181C17.0103 92.7933 15.77 92.1986 14.8571 91.1065C13.8883 89.9475 13.2225 88.1345 12.9924 85.853C12.7624 83.5719 13.0448 81.5835 13.7707 80.1772C14.4587 78.8443 15.5576 77.9842 17.2543 77.8131C19.0594 77.6311 20.2997 78.1773 21.1799 79.1545C22.1168 80.1948 22.7779 81.8769 23.0076 84.154Z" stroke="black" stroke-width="3"/>
<path d="M102 72.5038C94.4 70.1038 89.1667 74.5038 87.5 77.0038C87 77.8371 86.3 79.2038 87.5 78.0038C93.5 72.4038 99.6667 73.0038 102 74.0038C102.5 73.5038 103.2 72.5038 102 72.5038Z" fill="black" stroke="black"/>
<path d="M24.7133 103.626C12.859 106.784 7.5594 114.634 6.39138 118.164C6.0804 119.301 5.73963 121.08 6.86444 119.101C12.6777 109.581 21.6589 105.755 25.4228 105.032C25.8915 104.208 26.4057 102.772 24.7133 103.626Z" fill="black" stroke="black"/>
<path d="M49.6305 138.473C35.3366 138.369 28.2856 148.065 26.5469 152.926C26.0637 154.519 25.4795 157.071 27.0081 154.54C34.8358 142.527 45.8125 140.437 50.3224 140.893C50.9593 139.839 51.7127 137.878 49.6305 138.473Z" fill="black" stroke="black"/>
<path d="M60 23.0039C57.2 23.0039 42.1667 31.6706 35 36.0039C35 37.0039 35 38.5039 36.5 37.5039C48.5 29.9039 58.8333 25.3372 62.5 24.0039C62.8333 23.6706 62.8 23.0039 60 23.0039Z" fill="black"/>
<path fill-rule="evenodd" clip-rule="evenodd" d="M121.505 122.013C125.087 119.541 127.111 116.251 127.111 112.504C127.111 108.669 124.995 104.833 121.321 101.857C117.66 98.8912 112.697 97.0038 107.611 97.0038C97.6336 97.0038 91.1105 104.255 91.1105 112.504C91.1105 116.616 92.7154 119.891 95.4429 122.186C98.2166 124.52 102.359 126.004 107.611 126.004C112.885 126.004 117.897 124.504 121.505 122.013ZM107.611 129.004C119.209 129.004 130.111 122.445 130.111 112.504C130.111 102.563 119.209 94.0038 107.611 94.0038C96.0125 94.0038 88.1105 102.563 88.1105 112.504C88.1105 122.445 96.0125 129.004 107.611 129.004ZM118.208 31.7891C118.979 32.3684 119.742 32.9415 120.5 33.5039C134.193 43.6631 130.409 57.4389 128.082 65.908C126.694 70.9625 125.825 74.1268 129.5 73.5039C129.262 73.7306 129.026 73.9552 128.791 74.178L128.786 74.183C118.688 83.7852 112.194 89.9607 120.5 109.504C120.5 112.723 117.621 114.471 114.678 116.258C109.736 119.259 104.613 122.369 112.639 132.742C111.483 133.974 111.895 135.063 113.875 134.272C114.077 134.512 114.285 134.756 114.5 135.004C119.5 140.004 104.057 161.004 81.5 161.004C75.1574 161.004 69.1498 160.334 63.6402 159.719C51.3421 158.348 41.5248 157.253 36 164.504C31.5 169.504 101 205.004 150.5 164.504C159 156.004 219.5 92.0039 150.5 25.0039C149.373 24.2529 148 23.2242 146.387 22.0159C130.818 10.354 92.914 -18.0367 39 25.0039C85.1283 6.93304 103.214 20.5227 118.208 31.7891ZM113.875 134.272C113.875 134.272 113.875 134.272 113.875 134.272C115.536 133.607 119.875 132.938 122.375 133.272C124.042 133.272 126.675 132.872 123.875 131.272C121.075 129.672 116.042 130.938 113.875 131.772C113.355 132.084 112.943 132.418 112.639 132.742C113.02 133.235 113.432 133.745 113.875 134.272ZM153.553 86.6691C153.723 86.9754 153.802 87.886 152.498 89.5912C151.317 91.1352 149.438 92.6934 147.528 93.7561C145.606 94.8248 144.385 94.9855 143.65 94.8487C143.013 94.73 142.382 94.3185 141.772 93.222C141.38 92.5165 141.333 91.4545 141.99 90.1329C142.643 88.8212 143.917 87.4522 145.718 86.4499C147.52 85.4477 149.355 85.0873 150.814 85.2248C152.283 85.3633 153.161 85.9636 153.553 86.6691ZM155.301 85.6969C156.912 88.5927 152.718 93.1574 148.5 95.5039C144.282 97.8504 141.635 97.0901 140.025 94.1942C138.414 91.2984 140.528 87.0486 144.746 84.7021C148.965 82.3557 153.69 82.801 155.301 85.6969ZM162.5 65.504C159.7 63.904 154.667 65.1706 152.5 66.004C150 67.5039 150 69.5039 152.5 68.5039C154.161 67.8395 158.5 67.1706 161 67.5039C162.667 67.5039 165.3 67.104 162.5 65.504ZM138.536 65.541C142.291 63.1324 144.162 60.0552 144.162 56.5038C144.162 48.7411 136.303 41.0038 124.662 41.0038C113.02 41.0038 105.162 48.7411 105.162 56.5038C105.162 60.6051 106.801 63.6313 109.613 65.7688C112.568 68.0144 117.153 69.5038 123.162 69.5038C129.185 69.5038 134.697 68.0039 138.536 65.541ZM123.162 74.5038C136.693 74.5038 149.162 67.8256 149.162 56.5038C149.162 45.1819 138.193 36.0038 124.662 36.0038C111.131 36.0038 100.162 45.1819 100.162 56.5038C100.162 67.8256 109.631 74.5038 123.162 74.5038Z" fill="black"/>
<path d="M116.5 176.004C161 164.504 180 126.504 180 89.5039C180 47.291 146.5 15.0039 116.5 8.00391" stroke="white" stroke-width="2"/>
</svg>
