<svg width="206" height="214" viewBox="0 0 206 214" fill="none" xmlns="http://www.w3.org/2000/svg">
<circle cx="94.5" cy="99.5" r="88" stroke="black" stroke-width="7"/>
<path d="M51.4972 66.7216C48.8701 69.5579 46.0649 71.4127 41 66.7216C35.9352 62.0305 26.1588 53.267 31.5 47.5002C34.127 44.6639 40.9352 45.0425 46 49.7336C51.0648 54.4247 54.1242 63.8853 51.4972 66.7216Z" fill="black"/>
<path d="M51.4972 66.7216C48.8701 69.5579 46.0649 71.4127 41 66.7216C35.9352 62.0305 26.1588 53.267 31.5 47.5002C34.127 44.6639 40.9352 45.0425 46 49.7336C51.0648 54.4247 54.1242 63.8853 51.4972 66.7216Z" fill="black"/>
<path d="M46.1267 141.555C43.4996 144.391 40.8401 146.381 37.0366 142.858C33.233 139.335 25.855 132.793 31.1962 127.027C33.8233 124.19 39.6718 123.68 43.4754 127.203C47.2789 130.726 48.7537 138.719 46.1267 141.555Z" fill="black"/>
<path d="M46.1267 141.555C43.4996 144.391 40.8401 146.381 37.0366 142.858C33.233 139.335 25.855 132.793 31.1962 127.027C33.8233 124.19 39.6718 123.68 43.4754 127.203C47.2789 130.726 48.7537 138.719 46.1267 141.555Z" fill="black"/>
<path d="M95.4473 40.159C94.5111 42.692 93.2965 44.6761 89.6322 43.3218C85.9679 41.9676 78.9483 39.5324 80.8517 34.3823C81.7879 31.8492 85.6287 30.0303 89.293 31.3846C92.9573 32.7389 96.3835 37.6259 95.4473 40.159Z" fill="black"/>
<path d="M95.4473 40.159C94.5111 42.692 93.2965 44.6761 89.6322 43.3218C85.9679 41.9676 78.9483 39.5324 80.8517 34.3823C81.7879 31.8492 85.6287 30.0303 89.293 31.3846C92.9573 32.7389 96.3835 37.6259 95.4473 40.159Z" fill="black"/>
<path d="M108.126 106.448C108.965 104.046 109.178 101.842 104.888 100.345C100.598 98.8476 92.4866 95.8674 90.7817 100.752C89.9432 103.154 92.2637 106.996 96.5536 108.493C100.844 109.99 107.288 108.85 108.126 106.448Z" fill="black"/>
<path d="M108.126 106.448C108.965 104.046 109.178 101.842 104.888 100.345C100.598 98.8476 92.4866 95.8674 90.7817 100.752C89.9432 103.154 92.2637 106.996 96.5536 108.493C100.844 109.99 107.288 108.85 108.126 106.448Z" fill="black"/>
<path d="M67.5 27C67.5 28.1046 66.1046 30 65 30C63.8954 30 62 28.1046 62 27C62 25.8954 62.8954 25 64 25C65.1046 25 67.5 25.8954 67.5 27Z" fill="black"/>
<path d="M67.5 27C67.5 28.1046 66.1046 30 65 30C63.8954 30 62 28.1046 62 27C62 25.8954 62.8954 25 64 25C65.1046 25 67.5 25.8954 67.5 27Z" fill="black"/>
<path d="M95.9541 114.902C101.588 118.166 115.603 124.544 126.591 123.943C140.325 123.191 101.414 117.19 95.9541 114.902Z" fill="#D9D9D9"/>
<path fill-rule="evenodd" clip-rule="evenodd" d="M60.8273 159.079C69.5289 159.353 76.0672 157.649 77.436 153.104C82.1442 156.769 88.5109 160.297 96.2039 158.02C100.744 156.676 100.286 156.609 96.7468 156.089C93.0413 155.545 85.9581 154.505 77.6974 150.985C77.6412 149.171 76.9473 147.021 75.5 144.5C74.7448 143.912 73.7574 143.184 72.5833 142.319C59.7652 132.867 24.7098 107.018 27 68.9998C27 66.4059 28.2511 68.7053 30.9697 73.7016C39.7799 89.8935 64.0021 134.41 111 132.5C112.077 132.5 111.054 132.198 108.539 131.455C95.8708 127.716 45.3463 112.802 34.5 68.9998C33.863 66.4272 35.8077 68.7314 39.8068 73.4697C50.5751 86.2283 76.2385 116.635 106.5 117C112.489 115.157 116.356 102.701 116.927 91.7577C121.902 92.3344 127.191 92.3439 131.692 91.0942C139.662 88.8812 127.626 88.8477 116.464 88.8166L116.459 88.8166L116.455 88.8165L116.451 88.8165C115.131 88.8128 113.824 88.8092 112.563 88.802C99.8199 87.6608 74.6256 80.5006 45 40.9998C43.7348 38.1531 49.4228 42.6098 57.5863 49.0061C75.2321 62.8319 104.444 85.72 100 63.4998C100 61.5071 97.9653 61.0896 93.872 60.2498C86.6678 58.7718 73.087 55.9854 53 40.9998C50.2116 38.3857 54.5301 40.1451 61.9965 43.1869C74.3261 48.2099 95.2399 56.7302 106.908 54.8274C107.8 55.3149 109.817 55.4677 113.68 55.1485C126.438 54.0946 142.057 45.639 131.044 49.2784C124.63 51.3982 117.61 51.4459 112.771 50.9821C114.115 47.9092 114.684 42.8293 112.965 37.6635C123.235 38.5099 135.564 33.5687 126.5 34.9999C120.518 35.9445 114.349 34.266 110.531 32.6959C104.486 23.6506 89.4257 16.3408 56.5 21.9999C42.5 21.9999 121.5 -13.5002 164.5 46.4998C172.5 58.4997 213 121 138.5 177C137.517 177.404 136.438 177.869 135.265 178.374L135.262 178.375C116.144 186.606 72.2601 205.5 19.5 148.5C31.3384 154.071 46.927 158.262 58.9914 158.993C62.4412 164.384 67.8626 171.835 77.4752 171.835C82.2101 171.835 81.79 171.64 78.5439 170.138C74.9983 168.496 68.0812 165.294 60.8273 159.079ZM113.455 183C115.463 183 118 181.104 118 180C118 178.895 113.645 178 111.636 178C109.628 178 108 178.895 108 180C108 181.104 111.446 183 113.455 183ZM143.212 100.112C144.233 101.279 144.372 104.695 143.095 105.814C141.817 106.932 137.872 106.85 136.85 105.683C135.828 104.516 136.036 102.664 137.313 101.545C138.591 100.426 142.19 98.9457 143.212 100.112ZM120.764 68.5672C128.17 68.7602 137.811 69.0115 147 63.9995C163.5 54.9997 156.5 68.4997 131.5 75.4998C118.793 79.0579 115.383 74.469 117 68.4996C118.172 68.4996 119.432 68.5325 120.764 68.5672ZM116.5 142.5C122.5 143.333 136.8 143.8 146 139C153.333 135.174 141.556 137.65 130.632 139.947L130.632 139.947L130.631 139.947C124.424 141.253 118.493 142.5 116.5 142.5ZM135.279 158.321C128.331 161.511 117.531 161.201 113 160.647C114.505 160.647 118.985 159.818 123.673 158.951C131.923 157.424 140.818 155.778 135.279 158.321ZM50.5 113.5C61.3333 124.167 85.5821 143.5 96.5 143.5C100 143.5 101.5 145.603 95 146.5C85.3333 147.833 66.5 137 50.5 117.5C44.9 109.5 48.1667 111.5 50.5 113.5Z" fill="black"/>
<circle cx="190.5" cy="14.5" r="13" stroke="black" stroke-width="3"/>
<circle cx="190.5" cy="14.5" r="13" stroke="black" stroke-width="3"/>
<circle cx="13" cy="201" r="11.5" stroke="black" stroke-width="3"/>
<circle cx="190.5" cy="192.5" r="10" stroke="black" stroke-width="3"/>
<path d="M8 209.5C20.4 203.5 14.5 195 10 191.5C19 185 25 196.5 25 202C20.2 214.4 11.6667 212.166 8 209.5Z" fill="black" stroke="black"/>
<path d="M182.921 198.722C194.863 196.513 191.709 188.051 188.639 184.096C197.784 180.696 200.355 191.694 199.131 196.302C192.265 205.6 185.464 201.789 182.921 198.722Z" fill="black" stroke="black"/>
<path d="M183.763 23.4708C197.585 19.581 194.561 8.06367 191.321 2.79125C202.485 2.79104 204.205 12.5173 202.485 18.9925C193.982 32.3624 186.461 27.5489 183.763 23.4708Z" fill="black" stroke="black"/>
</svg>
