<svg width="375" height="752" viewBox="0 0 375 752" fill="none" xmlns="http://www.w3.org/2000/svg">
<path fill-rule="evenodd" clip-rule="evenodd" d="M190.634 23.0935L188.786 17.7104L186.86 23.0659L137.787 159.515L141.39 161.316L188.698 29.7751L267.753 260.107L278.719 603.031L243.224 644.441L242.397 645.405L242.919 646.564L260.122 684.792C178.744 723.931 126.34 694.129 109.3 673.725L130.315 646.978L131.329 645.688L130.261 644.441L94.772 603.038L108.729 252.13L132.477 186.097C131.16 186.385 129.749 186.451 128.242 186.243C128.242 186.188 128.24 186.131 128.236 186.071L104.86 251.066L104.756 251.356L104.744 251.663L90.7439 603.663L90.7127 604.448L91.2238 605.044L126.155 645.798L105.17 672.507L104.202 673.739L105.166 674.974C122.454 697.102 178.032 729.527 263.623 687.538L265.36 686.686L264.566 684.922L247.087 646.08L282.261 605.044L282.766 604.455L282.741 603.679L271.741 259.679L271.732 259.378L271.634 259.094L190.634 23.0935Z" fill="black"/>
<path d="M243.742 645.743C234.576 640.243 201.942 633.143 156.742 638.743" stroke="black" stroke-width="4"/>
<path d="M270.742 258.743C258.742 246.743 222.742 224.343 174.742 230.743" stroke="black" stroke-width="4"/>
<path d="M161.742 639.812C154.271 638.914 135.736 643.626 126.742 647.743L106.742 675.743C120.233 669.567 150.986 661.143 157.905 663.015C157.905 663.015 157.069 655.16 157.905 650.243C158.731 645.38 161.742 639.812 161.742 639.812Z" fill="black"/>
<path d="M186.306 11.8054V27.7427H190.526V11.8054C193.242 9.24268 194.242 -9.56721e-05 186.306 0C181.242 6.10352e-05 182.742 11.8054 186.306 11.8054Z" fill="black"/>
<circle cx="186.242" cy="325.243" r="7" stroke="black" stroke-width="5"/>
<path d="M186.742 391.243V338.743" stroke="black" stroke-width="3"/>
<path d="M136.242 644.743C145.909 638.743 180.642 630.343 242.242 644.743" stroke="black" stroke-width="2"/>
<path fill-rule="evenodd" clip-rule="evenodd" d="M271.242 329.743L248.242 308.743L239.742 461.743L255.742 617.243L258.068 583.76L256.75 583.891L245.25 468.391L245.24 468.294L245.243 468.197L249.743 321.197L252.742 321.289L248.245 468.191L258.759 573.796L265.742 473.243L274.242 468.743L271.242 329.743Z" fill="black"/>
<path fill-rule="evenodd" clip-rule="evenodd" d="M98.7424 460.743L5.74244 546.743C1.40911 596.076 -4.65756 700.343 5.74244 722.743L31.7425 615.743L92.7425 556.743L98.7424 460.743ZM90.741 552.626L27.741 609.126L27.3876 609.443L27.2809 609.905L3.28091 713.905L6.20408 714.58L30.0973 611.042L92.744 554.859L90.741 552.626Z" fill="black"/>
<path fill-rule="evenodd" clip-rule="evenodd" d="M275.742 460.743L368.742 546.743C372.728 592.116 378.18 683.957 370.938 715.837C372.393 680.038 371.173 639.071 369.553 606.605C368.709 589.686 367.755 575.066 367.012 564.675C366.641 559.479 366.322 555.34 366.096 552.5C365.983 551.079 365.893 549.984 365.832 549.243C365.812 549.007 365.795 548.807 365.782 548.643C365.774 548.551 365.767 548.47 365.761 548.401L365.743 548.187L365.738 548.132L365.737 548.119L365.737 548.115C365.737 548.114 365.737 548.114 364.242 548.243L365.737 548.114L365.686 547.525L365.247 547.129L278.747 469.129L276.738 471.357L362.798 548.96L362.842 549.491C362.903 550.229 362.993 551.321 363.105 552.738C363.331 555.571 363.649 559.702 364.02 564.889C364.761 575.263 365.714 589.862 366.557 606.755C368.224 640.156 369.461 682.491 367.804 718.881L342.742 615.743L281.742 556.743L275.742 460.743ZM368.122 720.189L367.744 720.171C367.764 719.742 367.784 719.312 367.804 718.881L368.122 720.189ZM368.122 720.189L369.718 720.265C369.41 721.177 369.085 722.004 368.742 722.743L368.122 720.189ZM369.718 720.265C370.159 718.957 370.566 717.476 370.938 715.837C370.877 717.338 370.811 718.831 370.741 720.314L369.718 720.265Z" fill="black"/>
<path fill-rule="evenodd" clip-rule="evenodd" d="M218.742 639.743V539.743H196.742L201.242 635.743L203.742 636.314V545.743H211.742V637.743H209.992L218.742 639.743Z" fill="black"/>
<path fill-rule="evenodd" clip-rule="evenodd" d="M200.242 232.243V274.243H176.742V232.243H200.242ZM196.742 232.743H178.742V272.743H196.742V232.743Z" fill="black"/>
<path d="M200.242 274.243V275.743H201.742V274.243H200.242ZM200.242 232.243H201.742V230.743H200.242V232.243ZM176.742 274.243H175.242V275.743H176.742V274.243ZM176.742 232.243V230.743H175.242V232.243H176.742ZM178.742 232.743V231.243H177.242V232.743H178.742ZM196.742 232.743H198.242V231.243H196.742V232.743ZM178.742 272.743H177.242V274.243H178.742V272.743ZM196.742 272.743V274.243H198.242V272.743H196.742ZM201.742 274.243V232.243H198.742V274.243H201.742ZM176.742 275.743H200.242V272.743H176.742V275.743ZM175.242 232.243V274.243H178.242V232.243H175.242ZM200.242 230.743H176.742V233.743H200.242V230.743ZM178.742 234.243H196.742V231.243H178.742V234.243ZM180.242 272.743V232.743H177.242V272.743H180.242ZM196.742 271.243H178.742V274.243H196.742V271.243ZM195.242 232.743V272.743H198.242V232.743H195.242ZM175.242 274.243V307.743H178.242V274.243H175.242Z" fill="black"/>
<circle cx="187.242" cy="252.243" r="5" stroke="black" stroke-width="3"/>
<path fill-rule="evenodd" clip-rule="evenodd" d="M115.742 681.319C136.909 670.319 193.642 654.919 251.242 681.319C251.242 681.319 257.076 684.653 256.742 686.319C228.909 703.153 161.742 725.719 115.742 681.319ZM187.242 705.743C208.505 705.743 225.742 701.042 225.742 695.243C225.742 689.444 208.505 684.743 187.242 684.743C165.979 684.743 148.742 689.444 148.742 695.243C148.742 701.042 165.979 705.743 187.242 705.743Z" fill="black"/>
<path d="M251.242 681.319L252.235 679.583L252.157 679.539L252.076 679.501L251.242 681.319ZM115.742 681.319L114.82 679.545L112.353 680.827L114.353 682.758L115.742 681.319ZM256.742 686.319L257.777 688.031L258.531 687.575L258.704 686.712L256.742 686.319ZM252.076 679.501C193.775 652.78 136.38 668.34 114.82 679.545L116.665 683.094C137.438 672.299 193.51 657.059 250.409 683.138L252.076 679.501ZM258.704 686.712C258.869 685.887 258.616 685.174 258.384 684.719C258.143 684.246 257.814 683.829 257.5 683.486C256.868 682.795 256.048 682.132 255.302 681.583C254.54 681.023 253.776 680.525 253.209 680.17C252.923 679.992 252.684 679.848 252.514 679.747C252.429 679.696 252.361 679.656 252.314 679.629C252.29 679.615 252.271 679.604 252.258 679.596C252.251 679.593 252.246 679.59 252.242 679.587C252.24 679.586 252.239 679.585 252.237 679.585C252.237 679.584 252.236 679.584 252.236 679.584C252.236 679.583 252.235 679.583 252.235 679.583C252.235 679.583 252.235 679.583 251.242 681.319C250.25 683.056 250.25 683.056 250.25 683.056C250.25 683.056 250.25 683.056 250.25 683.056C250.249 683.056 250.249 683.056 250.25 683.056C250.25 683.056 250.25 683.056 250.251 683.056C250.253 683.057 250.256 683.059 250.26 683.062C250.269 683.067 250.283 683.075 250.302 683.086C250.339 683.108 250.397 683.141 250.471 683.185C250.619 683.273 250.832 683.402 251.089 683.562C251.605 683.885 252.278 684.325 252.933 684.806C253.603 685.299 254.179 685.781 254.548 686.185C254.734 686.388 254.805 686.505 254.819 686.533C254.843 686.579 254.7 686.336 254.781 685.927L258.704 686.712ZM114.353 682.758C137.881 705.467 166.804 711.004 193.223 708.775C219.602 706.549 243.645 696.578 257.777 688.031L255.707 684.608C242.006 692.894 218.549 702.623 192.887 704.789C167.264 706.951 139.604 701.572 117.131 679.88L114.353 682.758ZM223.742 695.243C223.742 695.633 223.427 696.492 221.633 697.649C219.929 698.748 217.33 699.813 213.94 700.738C207.188 702.579 197.749 703.743 187.242 703.743V707.743C197.999 707.743 207.809 706.556 214.992 704.597C218.569 703.621 221.609 702.424 223.801 701.011C225.903 699.655 227.742 697.752 227.742 695.243H223.742ZM187.242 686.743C197.749 686.743 207.188 687.906 213.94 689.748C217.33 690.672 219.929 691.737 221.633 692.836C223.427 693.993 223.742 694.852 223.742 695.243H227.742C227.742 692.734 225.903 690.83 223.801 689.475C221.609 688.061 218.569 686.864 214.992 685.889C207.809 683.93 197.999 682.743 187.242 682.743V686.743ZM150.742 695.243C150.742 694.852 151.058 693.993 152.852 692.836C154.556 691.737 157.155 690.672 160.545 689.748C167.296 687.906 176.736 686.743 187.242 686.743V682.743C176.486 682.743 166.675 683.93 159.493 685.889C155.915 686.864 152.876 688.061 150.684 689.475C148.582 690.83 146.742 692.734 146.742 695.243H150.742ZM187.242 703.743C176.736 703.743 167.296 702.579 160.545 700.738C157.155 699.813 154.556 698.748 152.852 697.649C151.058 696.492 150.742 695.633 150.742 695.243H146.742C146.742 697.752 148.582 699.655 150.684 701.011C152.876 702.424 155.915 703.621 159.493 704.597C166.675 706.556 176.486 707.743 187.242 707.743V703.743Z" fill="black"/>
<path fill-rule="evenodd" clip-rule="evenodd" d="M108.742 627.743L58.7424 672.743V751.743L65.185 729.193L71.7621 689L71.8446 688.496L72.218 688.147L118.218 645.147L120.267 647.338L74.6401 689.989L72.2997 704.292L76.7424 688.743L118.742 654.743L129.742 645.743L108.742 627.743Z" fill="black"/>
<path fill-rule="evenodd" clip-rule="evenodd" d="M261.742 627.743L311.742 672.743V696.895L310.239 673.148L310.2 672.533L309.741 672.124L263.241 630.624L261.244 632.862L307.284 673.952L311.742 744.39V751.743L293.742 688.743L251.742 654.743L240.742 645.743L261.742 627.743Z" fill="black"/>
<path d="M259.833 178.782C259.654 178.972 259.268 179.207 258.415 179.221C257.554 179.235 256.393 179.012 254.984 178.473C252.175 177.4 248.761 175.22 245.487 172.135C242.212 169.049 239.833 165.771 238.595 163.031C237.973 161.656 237.682 160.511 237.645 159.65C237.608 158.798 237.819 158.399 237.998 158.209C238.178 158.019 238.564 157.784 239.416 157.77C240.278 157.756 241.438 157.979 242.847 158.518C245.656 159.591 249.07 161.771 252.345 164.857C255.619 167.942 257.998 171.22 259.236 173.96C259.858 175.335 260.149 176.48 260.187 177.341C260.223 178.193 260.012 178.592 259.833 178.782Z" stroke="black" stroke-width="4"/>
<path d="M226.742 172.243C226.342 169.043 233.576 161.243 237.242 157.743C242.842 172.543 254.242 179.743 259.242 180.743C256.242 183.909 249.342 189.043 245.742 190.243C241.242 191.743 227.242 176.243 226.742 172.243Z" fill="black"/>
<path d="M201.242 148.743C201.242 149.808 200.349 151.404 197.473 152.883C194.728 154.295 190.761 155.243 186.242 155.243C181.724 155.243 177.757 154.295 175.011 152.883C172.136 151.404 171.242 149.808 171.242 148.743C171.242 147.678 172.136 146.081 175.011 144.602C177.757 143.19 181.724 142.243 186.242 142.243C190.761 142.243 194.728 143.19 197.473 144.602C200.349 146.081 201.242 147.678 201.242 148.743Z" stroke="black" stroke-width="5"/>
<path d="M201.742 162.243V151.743C184.542 158.943 175.576 153.076 173.242 149.243V162.243C184.442 172.643 196.909 166.576 201.742 162.243Z" stroke="black" stroke-width="4"/>
<path fill-rule="evenodd" clip-rule="evenodd" d="M185.742 32.7427L174.742 228.743C140.742 232.743 125.242 243.243 105.742 257.243L131.016 186.319C140.792 185.466 145.867 172.62 147.242 165.743L142.242 161.743L140.147 160.695L185.742 32.7427Z" fill="black"/>
<path d="M121.742 175.743L130.182 189.783" stroke="black" stroke-width="3"/>
<path d="M134.327 156.218C135.383 156.94 136.061 158.557 135.824 161.097C135.593 163.58 134.492 166.597 132.503 169.501C130.515 172.405 128.1 174.523 125.869 175.636C123.586 176.776 121.834 176.728 120.778 176.005C119.722 175.282 119.044 173.666 119.281 171.125C119.512 168.643 120.614 165.625 122.602 162.721C124.59 159.818 127.005 157.7 129.236 156.586C131.519 155.447 133.271 155.495 134.327 156.218Z" stroke="black" stroke-width="3"/>
<path d="M133.742 155.743L149.742 164.743" stroke="black" stroke-width="3"/>
<path d="M234.742 202.743C238.909 203.743 248.642 207.843 254.242 216.243" stroke="black" stroke-width="3"/>
<path d="M203.742 220.243C215.409 223.243 242.242 234.943 258.242 249.743" stroke="black" stroke-width="3"/>
<path d="M180.742 93.7429C188.742 92.4096 207.342 93.1429 217.742 106.743" stroke="black" stroke-width="4"/>
<path d="M206.742 118.743C212.242 121.243 223.642 127.443 225.242 132.243" stroke="black" stroke-width="2"/>
<path d="M184.742 130.743C189.242 131.076 198.742 132.243 200.742 134.243" stroke="black" stroke-width="2"/>
<path d="M236.4 226.743C241.512 228.568 252.085 233.725 253.479 239.754" stroke="black" stroke-width="2"/>
<path d="M176.242 636.243H166.742V617.243L176.242 636.243Z" fill="black"/>
<path d="M166.742 564.743V617.243M166.742 617.243V636.243H176.242L166.742 617.243Z" stroke="black" stroke-width="2"/>
<path d="M127.884 647.813L142.101 640.172" stroke="black" stroke-width="2"/>
<path fill-rule="evenodd" clip-rule="evenodd" d="M136.742 653.743C136.742 653.743 158.498 648.86 158.742 646.588C170.742 535.184 168.742 236.743 168.742 236.743C137.542 240.013 115.076 257.184 107.742 265.36L105.332 328.785L131.766 306.126L134.242 304.003V307.265V623.592H131.242V310.526L105.177 332.87L99.7424 475.904L136.742 653.743ZM162.243 240.783L152.743 638.364L156.742 638.46L166.242 240.879L162.243 240.783Z" fill="black"/>
<path fill-rule="evenodd" clip-rule="evenodd" d="M190.634 23.0935L188.786 17.7104L186.86 23.0659L137.787 159.515L141.39 161.316L188.698 29.7751L267.753 260.107L278.719 603.031L243.224 644.441L242.397 645.405L242.919 646.564L260.122 684.792C178.744 723.931 126.34 694.129 109.3 673.725L130.315 646.978L131.329 645.688L130.261 644.441L94.772 603.038L108.729 252.13L132.477 186.097C131.16 186.385 129.749 186.451 128.242 186.243C128.242 186.188 128.24 186.131 128.236 186.071L104.86 251.066L104.756 251.356L104.744 251.663L90.7439 603.663L90.7127 604.448L91.2238 605.044L126.155 645.798L105.17 672.507L104.202 673.739L105.166 674.974C122.454 697.102 178.032 729.527 263.623 687.538L265.36 686.686L264.566 684.922L247.087 646.08L282.261 605.044L282.766 604.455L282.741 603.679L271.741 259.679L271.732 259.378L271.634 259.094L190.634 23.0935Z" fill="black"/>
<path d="M243.742 645.743C234.576 640.243 201.942 633.143 156.742 638.743" stroke="black" stroke-width="4"/>
<path d="M270.742 258.743C258.742 246.743 222.742 224.343 174.742 230.743" stroke="black" stroke-width="4"/>
<path d="M161.742 639.812C154.271 638.914 135.736 643.626 126.742 647.743L106.742 675.743C120.233 669.567 150.986 661.143 157.905 663.015C157.905 663.015 157.069 655.16 157.905 650.243C158.731 645.38 161.742 639.812 161.742 639.812Z" fill="black"/>
<path d="M186.306 11.8054V27.7427H190.526V11.8054C193.242 9.24268 194.242 -9.56721e-05 186.306 0C181.242 6.10352e-05 182.742 11.8054 186.306 11.8054Z" fill="black"/>
<circle cx="186.242" cy="325.243" r="7" stroke="black" stroke-width="5"/>
<path d="M186.742 391.243V338.743" stroke="black" stroke-width="3"/>
<path d="M136.242 644.743C145.909 638.743 180.642 630.343 242.242 644.743" stroke="black" stroke-width="2"/>
<path fill-rule="evenodd" clip-rule="evenodd" d="M271.242 329.743L248.242 308.743L239.742 461.743L255.742 617.243L258.068 583.76L256.75 583.891L245.25 468.391L245.24 468.294L245.243 468.197L249.743 321.197L252.742 321.289L248.245 468.191L258.759 573.796L265.742 473.243L274.242 468.743L271.242 329.743Z" fill="black"/>
<path fill-rule="evenodd" clip-rule="evenodd" d="M98.7424 460.743L5.74244 546.743C1.40911 596.076 -4.65756 700.343 5.74244 722.743L31.7425 615.743L92.7425 556.743L98.7424 460.743ZM90.741 552.626L27.741 609.126L27.3876 609.443L27.2809 609.905L3.28091 713.905L6.20408 714.58L30.0973 611.042L92.744 554.859L90.741 552.626Z" fill="black"/>
<path fill-rule="evenodd" clip-rule="evenodd" d="M275.742 460.743L368.742 546.743C372.728 592.116 378.18 683.957 370.938 715.837C372.393 680.038 371.173 639.071 369.553 606.605C368.709 589.686 367.755 575.066 367.012 564.675C366.641 559.479 366.322 555.34 366.096 552.5C365.983 551.079 365.893 549.984 365.832 549.243C365.812 549.007 365.795 548.807 365.782 548.643C365.774 548.551 365.767 548.47 365.761 548.401L365.743 548.187L365.738 548.132L365.737 548.119L365.737 548.115C365.737 548.114 365.737 548.114 364.242 548.243L365.737 548.114L365.686 547.525L365.247 547.129L278.747 469.129L276.738 471.357L362.798 548.96L362.842 549.491C362.903 550.229 362.993 551.321 363.105 552.738C363.331 555.571 363.649 559.702 364.02 564.889C364.761 575.263 365.714 589.862 366.557 606.755C368.224 640.156 369.461 682.491 367.804 718.881L342.742 615.743L281.742 556.743L275.742 460.743ZM368.122 720.189L367.744 720.171C367.764 719.742 367.784 719.312 367.804 718.881L368.122 720.189ZM368.122 720.189L369.718 720.265C369.41 721.177 369.085 722.004 368.742 722.743L368.122 720.189ZM369.718 720.265C370.159 718.957 370.566 717.476 370.938 715.837C370.877 717.338 370.811 718.831 370.741 720.314L369.718 720.265Z" fill="black"/>
<path fill-rule="evenodd" clip-rule="evenodd" d="M218.742 639.743V539.743H196.742L201.242 635.743L203.742 636.314V545.743H211.742V637.743H209.992L218.742 639.743Z" fill="black"/>
<path fill-rule="evenodd" clip-rule="evenodd" d="M200.242 232.243V274.243H176.742V232.243H200.242ZM196.742 232.743H178.742V272.743H196.742V232.743Z" fill="black"/>
<path d="M200.242 274.243V275.743H201.742V274.243H200.242ZM200.242 232.243H201.742V230.743H200.242V232.243ZM176.742 274.243H175.242V275.743H176.742V274.243ZM176.742 232.243V230.743H175.242V232.243H176.742ZM178.742 232.743V231.243H177.242V232.743H178.742ZM196.742 232.743H198.242V231.243H196.742V232.743ZM178.742 272.743H177.242V274.243H178.742V272.743ZM196.742 272.743V274.243H198.242V272.743H196.742ZM201.742 274.243V232.243H198.742V274.243H201.742ZM176.742 275.743H200.242V272.743H176.742V275.743ZM175.242 232.243V274.243H178.242V232.243H175.242ZM200.242 230.743H176.742V233.743H200.242V230.743ZM178.742 234.243H196.742V231.243H178.742V234.243ZM180.242 272.743V232.743H177.242V272.743H180.242ZM196.742 271.243H178.742V274.243H196.742V271.243ZM195.242 232.743V272.743H198.242V232.743H195.242ZM175.242 274.243V307.743H178.242V274.243H175.242Z" fill="black"/>
<circle cx="187.242" cy="252.243" r="5" stroke="black" stroke-width="3"/>
<path fill-rule="evenodd" clip-rule="evenodd" d="M115.742 681.319C136.909 670.319 193.642 654.919 251.242 681.319C251.242 681.319 257.076 684.653 256.742 686.319C228.909 703.153 161.742 725.719 115.742 681.319ZM187.242 705.743C208.505 705.743 225.742 701.042 225.742 695.243C225.742 689.444 208.505 684.743 187.242 684.743C165.979 684.743 148.742 689.444 148.742 695.243C148.742 701.042 165.979 705.743 187.242 705.743Z" fill="black"/>
<path d="M251.242 681.319L252.235 679.583L252.157 679.539L252.076 679.501L251.242 681.319ZM115.742 681.319L114.82 679.545L112.353 680.827L114.353 682.758L115.742 681.319ZM256.742 686.319L257.777 688.031L258.531 687.575L258.704 686.712L256.742 686.319ZM252.076 679.501C193.775 652.78 136.38 668.34 114.82 679.545L116.665 683.094C137.438 672.299 193.51 657.059 250.409 683.138L252.076 679.501ZM258.704 686.712C258.869 685.887 258.616 685.174 258.384 684.719C258.143 684.246 257.814 683.829 257.5 683.486C256.868 682.795 256.048 682.132 255.302 681.583C254.54 681.023 253.776 680.525 253.209 680.17C252.923 679.992 252.684 679.848 252.514 679.747C252.429 679.696 252.361 679.656 252.314 679.629C252.29 679.615 252.271 679.604 252.258 679.596C252.251 679.593 252.246 679.59 252.242 679.587C252.24 679.586 252.239 679.585 252.237 679.585C252.237 679.584 252.236 679.584 252.236 679.584C252.236 679.583 252.235 679.583 252.235 679.583C252.235 679.583 252.235 679.583 251.242 681.319C250.25 683.056 250.25 683.056 250.25 683.056C250.25 683.056 250.25 683.056 250.25 683.056C250.249 683.056 250.249 683.056 250.25 683.056C250.25 683.056 250.25 683.056 250.251 683.056C250.253 683.057 250.256 683.059 250.26 683.062C250.269 683.067 250.283 683.075 250.302 683.086C250.339 683.108 250.397 683.141 250.471 683.185C250.619 683.273 250.832 683.402 251.089 683.562C251.605 683.885 252.278 684.325 252.933 684.806C253.603 685.299 254.179 685.781 254.548 686.185C254.734 686.388 254.805 686.505 254.819 686.533C254.843 686.579 254.7 686.336 254.781 685.927L258.704 686.712ZM114.353 682.758C137.881 705.467 166.804 711.004 193.223 708.775C219.602 706.549 243.645 696.578 257.777 688.031L255.707 684.608C242.006 692.894 218.549 702.623 192.887 704.789C167.264 706.951 139.604 701.572 117.131 679.88L114.353 682.758ZM223.742 695.243C223.742 695.633 223.427 696.492 221.633 697.649C219.929 698.748 217.33 699.813 213.94 700.738C207.188 702.579 197.749 703.743 187.242 703.743V707.743C197.999 707.743 207.809 706.556 214.992 704.597C218.569 703.621 221.609 702.424 223.801 701.011C225.903 699.655 227.742 697.752 227.742 695.243H223.742ZM187.242 686.743C197.749 686.743 207.188 687.906 213.94 689.748C217.33 690.672 219.929 691.737 221.633 692.836C223.427 693.993 223.742 694.852 223.742 695.243H227.742C227.742 692.734 225.903 690.83 223.801 689.475C221.609 688.061 218.569 686.864 214.992 685.889C207.809 683.93 197.999 682.743 187.242 682.743V686.743ZM150.742 695.243C150.742 694.852 151.058 693.993 152.852 692.836C154.556 691.737 157.155 690.672 160.545 689.748C167.296 687.906 176.736 686.743 187.242 686.743V682.743C176.486 682.743 166.675 683.93 159.493 685.889C155.915 686.864 152.876 688.061 150.684 689.475C148.582 690.83 146.742 692.734 146.742 695.243H150.742ZM187.242 703.743C176.736 703.743 167.296 702.579 160.545 700.738C157.155 699.813 154.556 698.748 152.852 697.649C151.058 696.492 150.742 695.633 150.742 695.243H146.742C146.742 697.752 148.582 699.655 150.684 701.011C152.876 702.424 155.915 703.621 159.493 704.597C166.675 706.556 176.486 707.743 187.242 707.743V703.743Z" fill="black"/>
<path fill-rule="evenodd" clip-rule="evenodd" d="M108.742 627.743L58.7424 672.743V751.743L65.185 729.193L71.7621 689L71.8446 688.496L72.218 688.147L118.218 645.147L120.267 647.338L74.6401 689.989L72.2997 704.292L76.7424 688.743L118.742 654.743L129.742 645.743L108.742 627.743Z" fill="black"/>
<path fill-rule="evenodd" clip-rule="evenodd" d="M261.742 627.743L311.742 672.743V696.895L310.239 673.148L310.2 672.533L309.741 672.124L263.241 630.624L261.244 632.862L307.284 673.952L311.742 744.39V751.743L293.742 688.743L251.742 654.743L240.742 645.743L261.742 627.743Z" fill="black"/>
<path d="M259.833 178.782C259.654 178.972 259.268 179.207 258.415 179.221C257.554 179.235 256.393 179.012 254.984 178.473C252.175 177.4 248.761 175.22 245.487 172.135C242.212 169.049 239.833 165.771 238.595 163.031C237.973 161.656 237.682 160.511 237.645 159.65C237.608 158.798 237.819 158.399 237.998 158.209C238.178 158.019 238.564 157.784 239.416 157.77C240.278 157.756 241.438 157.979 242.847 158.518C245.656 159.591 249.07 161.771 252.345 164.857C255.619 167.942 257.998 171.22 259.236 173.96C259.858 175.335 260.149 176.48 260.187 177.341C260.223 178.193 260.012 178.592 259.833 178.782Z" stroke="black" stroke-width="4"/>
<path d="M226.742 172.243C226.342 169.043 233.576 161.243 237.242 157.743C242.842 172.543 254.242 179.743 259.242 180.743C256.242 183.909 249.342 189.043 245.742 190.243C241.242 191.743 227.242 176.243 226.742 172.243Z" fill="black"/>
<path d="M201.242 148.743C201.242 149.808 200.349 151.404 197.473 152.883C194.728 154.295 190.761 155.243 186.242 155.243C181.724 155.243 177.757 154.295 175.011 152.883C172.136 151.404 171.242 149.808 171.242 148.743C171.242 147.678 172.136 146.081 175.011 144.602C177.757 143.19 181.724 142.243 186.242 142.243C190.761 142.243 194.728 143.19 197.473 144.602C200.349 146.081 201.242 147.678 201.242 148.743Z" stroke="black" stroke-width="5"/>
<path d="M201.742 162.243V151.743C184.542 158.943 175.576 153.076 173.242 149.243V162.243C184.442 172.643 196.909 166.576 201.742 162.243Z" stroke="black" stroke-width="4"/>
<path fill-rule="evenodd" clip-rule="evenodd" d="M185.742 32.7427L174.742 228.743C140.742 232.743 125.242 243.243 105.742 257.243L131.016 186.319C140.792 185.466 145.867 172.62 147.242 165.743L142.242 161.743L140.147 160.695L185.742 32.7427Z" fill="black"/>
<path d="M121.742 175.743L130.182 189.783" stroke="black" stroke-width="3"/>
<path d="M134.327 156.218C135.383 156.94 136.061 158.557 135.824 161.097C135.593 163.58 134.492 166.597 132.503 169.501C130.515 172.405 128.1 174.523 125.869 175.636C123.586 176.776 121.834 176.728 120.778 176.005C119.722 175.282 119.044 173.666 119.281 171.125C119.512 168.643 120.614 165.625 122.602 162.721C124.59 159.818 127.005 157.7 129.236 156.586C131.519 155.447 133.271 155.495 134.327 156.218Z" fill="black" stroke="black" stroke-width="3"/>
<path d="M133.742 155.743L149.742 164.743" stroke="black" stroke-width="3"/>
<path d="M234.742 202.743C238.909 203.743 248.642 207.843 254.242 216.243" stroke="black" stroke-width="3"/>
<path d="M203.742 220.243C215.409 223.243 242.242 234.943 258.242 249.743" stroke="black" stroke-width="3"/>
<path d="M180.742 93.7429C188.742 92.4096 207.342 93.1429 217.742 106.743" stroke="black" stroke-width="4"/>
<path d="M206.742 118.743C212.242 121.243 223.642 127.443 225.242 132.243" stroke="black" stroke-width="2"/>
<path d="M184.742 130.743C189.242 131.076 198.742 132.243 200.742 134.243" stroke="black" stroke-width="2"/>
<path d="M236.4 226.743C241.512 228.568 252.085 233.725 253.479 239.754" stroke="black" stroke-width="2"/>
<path d="M176.242 636.243H166.742V617.243L176.242 636.243Z" fill="black"/>
<path d="M166.742 564.743V617.243M166.742 617.243V636.243H176.242L166.742 617.243Z" stroke="black" stroke-width="2"/>
<path d="M127.884 647.813L142.101 640.172" stroke="black" stroke-width="2"/>
<path fill-rule="evenodd" clip-rule="evenodd" d="M136.742 653.743C136.742 653.743 158.498 648.86 158.742 646.588C170.742 535.184 168.742 236.743 168.742 236.743C137.542 240.013 115.076 257.184 107.742 265.36L105.332 328.785L131.766 306.126L134.242 304.003V307.265V623.592H131.242V310.526L105.177 332.87L99.7424 475.904L136.742 653.743ZM162.243 240.783L152.743 638.364L156.742 638.46L166.242 240.879L162.243 240.783Z" fill="black"/>
<path d="M132.537 624.111L136.518 589.9L138.477 633.856L132.537 624.111Z" fill="black" stroke="black"/>
<path d="M2.64394 710.072L3.49455 676L5.4536 719.956L2.64394 710.072Z" fill="black" stroke="black"/>
<path d="M54.7388 538.881L94.0276 553.28L51.6336 565.059L54.7388 538.881Z" fill="black" stroke="black"/>
<path d="M257.475 342.396L249.05 309L266.488 349.397L257.475 342.396Z" fill="black" stroke="black"/>
</svg>
